<?xml version="1.0" encoding="UTF-8"?>
<!DOCTYPE svg PUBLIC "-//W3C//DTD SVG 1.1//EN" "http://www.w3.org/Graphics/SVG/1.1/DTD/svg11.dtd">
<svg xmlns="http://www.w3.org/2000/svg" version="1.1" width="500px" height="500px" style="shape-rendering:geometricPrecision; text-rendering:geometricPrecision; image-rendering:optimizeQuality; fill-rule:evenodd; clip-rule:evenodd" xmlns:xlink="http://www.w3.org/1999/xlink">
<g><path style="opacity:1" fill="#fefefe" d="M -0.5,-0.5 C 166.167,-0.5 332.833,-0.5 499.5,-0.5C 499.5,166.167 499.5,332.833 499.5,499.5C 332.833,499.5 166.167,499.5 -0.5,499.5C -0.5,374.167 -0.5,248.833 -0.5,123.5C -0.166667,123.5 0.166667,123.5 0.5,123.5C 2.55996,128.62 4.8933,133.62 7.5,138.5C 9.17574,141.543 11.5091,143.877 14.5,145.5C 14.5106,147.017 15.1772,148.184 16.5,149C 18.8171,151.157 21.4838,152.657 24.5,153.5C 25.4916,153.328 26.1583,153.662 26.5,154.5C 27.842,155.793 29.5087,156.626 31.5,157C 36.3522,157.815 41.0189,157.648 45.5,156.5C 46.791,156.737 47.791,156.404 48.5,155.5C 56.0346,152.752 61.3679,147.752 64.5,140.5C 65.6118,138.401 66.2785,136.067 66.5,133.5C 67.3382,133.158 67.6716,132.492 67.5,131.5C 68.9238,129.485 69.5905,127.152 69.5,124.5C 69.5,116.833 69.5,109.167 69.5,101.5C 69.5557,96.2688 68.889,91.2688 67.5,86.5C 67.1417,83.3112 66.475,80.3112 65.5,77.5C 64.0802,68.4796 61.7469,59.8129 58.5,51.5C 58.0951,48.2854 57.0951,45.2854 55.5,42.5C 52.5666,34.287 47.8999,27.287 41.5,21.5C 35.0656,15.4707 27.399,13.3041 18.5,15C 17.0577,15.3768 16.0577,16.2101 15.5,17.5C 13.7376,18.2623 12.7376,19.5956 12.5,21.5C 10.8958,22.287 10.2291,23.6203 10.5,25.5C 9.66175,25.8417 9.32842,26.5084 9.5,27.5C 9.24009,33.1939 10.2401,38.5273 12.5,43.5C 13.546,48.596 15.8793,52.9293 19.5,56.5C 19.369,57.2389 19.5357,57.9056 20,58.5C 26.0899,65.0957 32.5899,71.0957 39.5,76.5C 44.8333,81.1667 49.8333,86.1667 54.5,91.5C 58.6206,97.8617 60.9539,104.862 61.5,112.5C 61.9615,119.342 61.1282,126.009 59,132.5C 57.516,136.488 54.6826,138.154 50.5,137.5C 49.8333,137.167 49.1667,136.833 48.5,136.5C 46.5591,135.326 45.0591,133.659 44,131.5C 39.6511,122.802 35.3178,114.136 31,105.5C 28.4986,102.152 25.3319,99.8184 21.5,98.5C 16.6165,96.9905 11.9499,97.3238 7.5,99.5C 4.5,100.5 2.5,102.5 1.5,105.5C 0.833333,106.5 0.166667,107.5 -0.5,108.5C -0.5,72.1667 -0.5,35.8333 -0.5,-0.5 Z"/></g>
<g><path style="opacity:1" fill="#615583" d="M 41.5,21.5 C 41.5,22.1667 41.1667,22.5 40.5,22.5C 37.3851,18.9582 33.7184,17.7916 29.5,19C 30.056,19.3826 30.3893,19.8826 30.5,20.5C 28.9519,20.1788 28.2852,19.1788 28.5,17.5C 26.5853,17.2155 24.9187,17.5489 23.5,18.5C 22.8485,17.9094 22.1818,17.2427 21.5,16.5C 19.5914,17.3482 17.5914,17.6816 15.5,17.5C 16.0577,16.2101 17.0577,15.3768 18.5,15C 27.399,13.3041 35.0656,15.4707 41.5,21.5 Z"/></g>
<g><path style="opacity:1" fill="#4a2a75" d="M 23.5,18.5 C 23.5,18.8333 23.5,19.1667 23.5,19.5C 23.5,19.8333 23.5,20.1667 23.5,20.5C 19.993,20.3067 16.6596,20.9733 13.5,22.5C 12.8933,22.3764 12.56,22.0431 12.5,21.5C 12.7376,19.5956 13.7376,18.2623 15.5,17.5C 17.5914,17.6816 19.5914,17.3482 21.5,16.5C 22.1818,17.2427 22.8485,17.9094 23.5,18.5 Z"/></g>
<g><path style="opacity:1" fill="#b77f82" d="M 23.5,19.5 C 25.1559,23.4577 26.8225,27.4577 28.5,31.5C 27.5416,31.0472 26.7083,30.3805 26,29.5C 25.4338,27.2774 24.6005,25.2774 23.5,23.5C 23.5,22.5 23.5,21.5 23.5,20.5C 23.5,20.1667 23.5,19.8333 23.5,19.5 Z"/></g>
<g><path style="opacity:1" fill="#bc94bb" d="M 23.5,20.5 C 23.5,21.5 23.5,22.5 23.5,23.5C 20.832,24.6095 17.9987,24.6095 15,23.5C 12.8121,23.354 11.4788,24.354 11,26.5C 10.6012,26.2716 10.4346,25.9382 10.5,25.5C 10.2291,23.6203 10.8958,22.287 12.5,21.5C 12.56,22.0431 12.8933,22.3764 13.5,22.5C 16.6596,20.9733 19.993,20.3067 23.5,20.5 Z"/></g>
<g><path style="opacity:1" fill="#cfb8ca" d="M 23.5,23.5 C 24.6005,25.2774 25.4338,27.2774 26,29.5C 26.7083,30.3805 27.5416,31.0472 28.5,31.5C 28.3433,32.8734 28.51,34.2068 29,35.5C 32.1179,41.4008 34.9512,47.4008 37.5,53.5C 33.8544,50.5211 30.521,47.1877 27.5,43.5C 27.1667,42.8333 26.8333,42.1667 26.5,41.5C 26.5,40.8333 26.5,40.1667 26.5,39.5C 26.1412,37.629 25.1412,36.129 23.5,35C 19.8675,33.923 16.2008,33.0897 12.5,32.5C 12.573,30.9731 11.9063,29.9731 10.5,29.5C 10.6716,28.5084 10.3382,27.8417 9.5,27.5C 9.32842,26.5084 9.66175,25.8417 10.5,25.5C 10.4346,25.9382 10.6012,26.2716 11,26.5C 11.4788,24.354 12.8121,23.354 15,23.5C 17.9987,24.6095 20.832,24.6095 23.5,23.5 Z"/></g>
<g><path style="opacity:1" fill="#774c61" d="M 30.5,20.5 C 31.4194,23.0892 33.086,25.0892 35.5,26.5C 36.2341,27.7079 36.5674,29.0413 36.5,30.5C 34.233,27.7291 31.733,25.0625 29,22.5C 29.2033,26.9099 30.7033,30.9099 33.5,34.5C 32.8333,34.8333 32.1667,35.1667 31.5,35.5C 30.4884,34.1283 29.4884,32.795 28.5,31.5C 26.8225,27.4577 25.1559,23.4577 23.5,19.5C 23.5,19.1667 23.5,18.8333 23.5,18.5C 24.9187,17.5489 26.5853,17.2155 28.5,17.5C 28.2852,19.1788 28.9519,20.1788 30.5,20.5 Z"/></g>
<g><path style="opacity:1" fill="#a890a7" d="M 41.5,21.5 C 47.8999,27.287 52.5666,34.287 55.5,42.5C 53.5487,41.7177 52.0487,40.3844 51,38.5C 47.9376,32.7696 44.1043,27.6029 39.5,23C 39.7284,22.6012 40.0618,22.4346 40.5,22.5C 41.1667,22.5 41.5,22.1667 41.5,21.5 Z"/></g>
<g><path style="opacity:1" fill="#d17ebc" d="M 12.5,32.5 C 16.2008,33.0897 19.8675,33.923 23.5,35C 25.1412,36.129 26.1412,37.629 26.5,39.5C 24.6366,37.2947 22.3033,35.9613 19.5,35.5C 19.2627,36.791 19.596,37.791 20.5,38.5C 20.5,38.8333 20.5,39.1667 20.5,39.5C 16.5713,38.5692 13.9047,36.2359 12.5,32.5 Z"/></g>
<g><path style="opacity:1" fill="#695271" d="M 36.5,30.5 C 37.4408,32.0495 38.1075,33.7162 38.5,35.5C 40.2641,43.5528 43.0975,51.2195 47,58.5C 47.567,61.1677 48.067,63.8344 48.5,66.5C 46.8998,64.2974 45.5665,61.964 44.5,59.5C 41.1057,51.0448 37.439,42.7115 33.5,34.5C 30.7033,30.9099 29.2033,26.9099 29,22.5C 31.733,25.0625 34.233,27.7291 36.5,30.5 Z"/></g>
<g><path style="opacity:1" fill="#cf4ca9" d="M 26.5,39.5 C 26.5,40.1667 26.5,40.8333 26.5,41.5C 24.9468,39.615 22.9468,38.615 20.5,38.5C 19.596,37.791 19.2627,36.791 19.5,35.5C 22.3033,35.9613 24.6366,37.2947 26.5,39.5 Z"/></g>
<g><path style="opacity:1" fill="#8c697c" d="M 40.5,22.5 C 40.0618,22.4346 39.7284,22.6012 39.5,23C 44.1043,27.6029 47.9376,32.7696 51,38.5C 52.0487,40.3844 53.5487,41.7177 55.5,42.5C 57.0951,45.2854 58.0951,48.2854 58.5,51.5C 57.609,52.1098 56.609,52.4431 55.5,52.5C 53.4607,46.7572 50.9607,41.0905 48,35.5C 45.2631,33.5483 43.0964,31.0483 41.5,28C 39.5789,27.6397 37.9122,26.8064 36.5,25.5C 35.8933,25.6236 35.56,25.9569 35.5,26.5C 33.086,25.0892 31.4194,23.0892 30.5,20.5C 30.3893,19.8826 30.056,19.3826 29.5,19C 33.7184,17.7916 37.3851,18.9582 40.5,22.5 Z"/></g>
<g><path style="opacity:1" fill="#d05f7d" d="M 20.5,39.5 C 20.5,39.1667 20.5,38.8333 20.5,38.5C 22.9468,38.615 24.9468,39.615 26.5,41.5C 26.8333,42.1667 27.1667,42.8333 27.5,43.5C 24.4121,43.2689 22.0788,41.9355 20.5,39.5 Z"/></g>
<g><path style="opacity:1" fill="#a66c75" d="M 33.5,34.5 C 37.439,42.7115 41.1057,51.0448 44.5,59.5C 39.6743,51.8542 35.3409,43.8542 31.5,35.5C 32.1667,35.1667 32.8333,34.8333 33.5,34.5 Z"/></g>
<g><path style="opacity:1" fill="#916579" d="M 9.5,27.5 C 10.3382,27.8417 10.6716,28.5084 10.5,29.5C 10.9954,31.4817 11.4954,33.4817 12,35.5C 14.2715,39.7243 16.7715,43.7243 19.5,47.5C 18.8826,47.6107 18.3826,47.944 18,48.5C 15.5971,46.695 13.9305,44.3616 13,41.5C 12.5357,42.0944 12.369,42.7611 12.5,43.5C 10.2401,38.5273 9.24009,33.1939 9.5,27.5 Z"/></g>
<g><path style="opacity:1" fill="#a28099" d="M 170.5,55.5 C 168.661,58.2958 166.994,61.2958 165.5,64.5C 165.672,63.5084 165.338,62.8417 164.5,62.5C 165.234,61.2921 165.567,59.9587 165.5,58.5C 166.896,55.1551 166.23,52.1551 163.5,49.5C 161.71,48.0027 159.544,47.336 157,47.5C 153.459,48.025 149.959,48.6917 146.5,49.5C 147.6,48.4415 148.934,47.6082 150.5,47C 153.5,46.6667 156.5,46.3333 159.5,46C 154.188,43.7898 149.188,44.2898 144.5,47.5C 144.414,46.5041 144.748,45.6708 145.5,45C 143.154,45.7916 140.821,45.6249 138.5,44.5C 136.956,44.7031 135.622,45.3698 134.5,46.5C 133.537,46.0302 133.537,45.3635 134.5,44.5C 135.975,42.5905 137.975,41.4238 140.5,41C 148.736,39.4627 156.403,40.796 163.5,45C 166.722,47.9556 169.056,51.4556 170.5,55.5 Z"/></g>
<g><path style="opacity:1" fill="#cfb1b6" d="M 10.5,29.5 C 11.9063,29.9731 12.573,30.9731 12.5,32.5C 13.9047,36.2359 16.5713,38.5692 20.5,39.5C 22.0788,41.9355 24.4121,43.2689 27.5,43.5C 30.521,47.1877 33.8544,50.5211 37.5,53.5C 39.9159,58.0006 42.5825,62.3339 45.5,66.5C 46.494,68.3344 46.494,70.0011 45.5,71.5C 40.1667,65.5 34.5,59.8333 28.5,54.5C 25.319,52.4083 22.319,50.075 19.5,47.5C 16.7715,43.7243 14.2715,39.7243 12,35.5C 11.4954,33.4817 10.9954,31.4817 10.5,29.5 Z"/></g>
<g><path style="opacity:1" fill="#d0bbca" d="M 88.5,41.5 C 87.7611,41.369 87.0944,41.5357 86.5,42C 88.1134,44.2276 88.78,46.7276 88.5,49.5C 85.5448,48.8413 82.5448,48.5079 79.5,48.5C 79.7845,46.5853 79.4511,44.9187 78.5,43.5C 81.4005,40.5155 84.7338,39.8489 88.5,41.5 Z"/></g>
<g><path style="opacity:1" fill="#e7dce5" d="M 146.5,49.5 C 144.251,50.0798 142.585,51.4131 141.5,53.5C 140.417,53.5394 139.417,53.8728 138.5,54.5C 137.537,54.0302 137.537,53.3635 138.5,52.5C 139.891,50.1097 141.891,48.4431 144.5,47.5C 149.188,44.2898 154.188,43.7898 159.5,46C 156.5,46.3333 153.5,46.6667 150.5,47C 148.934,47.6082 147.6,48.4415 146.5,49.5 Z"/></g>
<g><path style="opacity:1" fill="#6c5063" d="M 163.5,49.5 C 162.127,49.3433 160.793,49.51 159.5,50C 160.252,50.6708 160.586,51.5041 160.5,52.5C 152.009,48.9597 144.842,50.9597 139,58.5C 136.946,61.0472 135.113,63.7139 133.5,66.5C 132.391,66.5569 131.391,66.8902 130.5,67.5C 131.723,64.7261 133.223,62.0594 135,59.5C 137.664,58.0016 139.83,56.0016 141.5,53.5C 142.585,51.4131 144.251,50.0798 146.5,49.5C 149.959,48.6917 153.459,48.025 157,47.5C 159.544,47.336 161.71,48.0027 163.5,49.5 Z"/></g>
<g><path style="opacity:1" fill="#b193aa" d="M 106.5,41.5 C 105.833,41.5 105.5,41.8333 105.5,42.5C 107.238,44.1195 107.738,46.1195 107,48.5C 103.67,50.161 100.337,51.8276 97,53.5C 96.6667,51.8333 96.3333,50.1667 96,48.5C 95.5034,50.8098 95.3367,53.1432 95.5,55.5C 93.9733,51.0749 94.4733,46.7415 97,42.5C 100.038,40.3065 103.204,39.9732 106.5,41.5 Z"/></g>
<g><path style="opacity:1" fill="#f3ecf2" d="M 105.5,42.5 C 105.5,43.5 105.5,44.5 105.5,45.5C 103.194,45.9926 100.861,46.3259 98.5,46.5C 98.8471,41.8243 101.18,40.4909 105.5,42.5 Z"/></g>
<g><path style="opacity:1" fill="#bba5b8" d="M 134.5,44.5 C 133.537,45.3635 133.537,46.0302 134.5,46.5C 135.622,45.3698 136.956,44.7031 138.5,44.5C 131.779,48.5596 126.779,54.2263 123.5,61.5C 122.675,62.3857 121.675,62.719 120.5,62.5C 122.007,58.1554 124.173,54.1554 127,50.5C 129.106,47.8823 131.606,45.8823 134.5,44.5 Z"/></g>
<g><path style="opacity:1" fill="#b392a8" d="M 55.5,52.5 C 56.5471,59.5793 57.8804,66.5793 59.5,73.5C 59.6658,78.1785 59.4992,82.8452 59,87.5C 58.0594,84.846 57.2261,82.1794 56.5,79.5C 57.6499,80.8502 58.3166,80.6836 58.5,79C 55.5475,68.5993 53.0475,58.0993 51,47.5C 48.4131,40.6488 44.5797,34.6488 39.5,29.5C 39.1667,29.8333 38.8333,30.1667 38.5,30.5C 42.275,36.0465 44.9417,42.0465 46.5,48.5C 44.0841,43.9994 41.4175,39.6661 38.5,35.5C 38.1075,33.7162 37.4408,32.0495 36.5,30.5C 36.5674,29.0413 36.2341,27.7079 35.5,26.5C 35.56,25.9569 35.8933,25.6236 36.5,25.5C 37.9122,26.8064 39.5789,27.6397 41.5,28C 43.0964,31.0483 45.2631,33.5483 48,35.5C 50.9607,41.0905 53.4607,46.7572 55.5,52.5 Z"/></g>
<g><path style="opacity:1" fill="#e0d5dd" d="M 188.5,50.5 C 188.167,50.5 187.833,50.5 187.5,50.5C 184.728,52.281 181.728,53.6143 178.5,54.5C 178.5,56.1667 178.5,57.8333 178.5,59.5C 176.696,51.0683 180.029,48.0683 188.5,50.5 Z"/></g>
<g><path style="opacity:1" fill="#674f8e" d="M 187.5,50.5 C 187.833,50.5 188.167,50.5 188.5,50.5C 190.674,50.7497 192.341,51.7497 193.5,53.5C 192.89,54.391 192.557,55.391 192.5,56.5C 191.167,55.5 189.833,54.5 188.5,53.5C 187.89,52.609 187.557,51.609 187.5,50.5 Z"/></g>
<g><path style="opacity:1" fill="#ede4eb" d="M 56.5,79.5 C 56.1667,78.8333 55.8333,78.1667 55.5,77.5C 54.1857,67.2238 51.1857,57.5572 46.5,48.5C 44.9417,42.0465 42.275,36.0465 38.5,30.5C 38.8333,30.1667 39.1667,29.8333 39.5,29.5C 44.5797,34.6488 48.4131,40.6488 51,47.5C 53.0475,58.0993 55.5475,68.5993 58.5,79C 58.3166,80.6836 57.6499,80.8502 56.5,79.5 Z"/></g>
<g><path style="opacity:1" fill="#5a5982" d="M 19.5,47.5 C 26.7718,57.7732 35.4385,66.7732 45.5,74.5C 51.0054,80.01 55.3388,86.3433 58.5,93.5C 58.5,94.1667 58.5,94.8333 58.5,95.5C 57.1667,94.1667 55.8333,92.8333 54.5,91.5C 53.9553,89.4068 53.122,87.4068 52,85.5C 48.6642,80.9981 44.8309,76.9981 40.5,73.5C 34.6701,67.8377 28.6701,62.3377 22.5,57C 21.552,56.5172 20.552,56.3505 19.5,56.5C 15.8793,52.9293 13.546,48.596 12.5,43.5C 12.369,42.7611 12.5357,42.0944 13,41.5C 13.9305,44.3616 15.5971,46.695 18,48.5C 18.3826,47.944 18.8826,47.6107 19.5,47.5 Z"/></g>
<g><path style="opacity:1" fill="#764c6e" d="M 19.5,47.5 C 22.319,50.075 25.319,52.4083 28.5,54.5C 33.4412,61.11 39.1078,67.11 45.5,72.5C 45.5,73.1667 45.5,73.8333 45.5,74.5C 35.4385,66.7732 26.7718,57.7732 19.5,47.5 Z"/></g>
<g><path style="opacity:1" fill="#725973" d="M 187.5,50.5 C 187.557,51.609 187.89,52.609 188.5,53.5C 188.5,54.1667 188.5,54.8333 188.5,55.5C 187.257,57.9636 186.257,60.6303 185.5,63.5C 184.162,61.6634 182.662,59.9967 181,58.5C 179.97,58.8361 179.47,59.5028 179.5,60.5C 178.833,60.5 178.5,60.1667 178.5,59.5C 178.5,57.8333 178.5,56.1667 178.5,54.5C 181.728,53.6143 184.728,52.281 187.5,50.5 Z"/></g>
<g><path style="opacity:1" fill="#ac4f6a" d="M 28.5,54.5 C 34.5,59.8333 40.1667,65.5 45.5,71.5C 45.5,71.8333 45.5,72.1667 45.5,72.5C 39.1078,67.11 33.4412,61.11 28.5,54.5 Z"/></g>
<g><path style="opacity:1" fill="#b698ac" d="M 138.5,52.5 C 137.537,53.3635 137.537,54.0302 138.5,54.5C 139.417,53.8728 140.417,53.5394 141.5,53.5C 139.83,56.0016 137.664,58.0016 135,59.5C 133.223,62.0594 131.723,64.7261 130.5,67.5C 129.833,68.8333 129.167,70.1667 128.5,71.5C 126.859,74.2764 125.359,77.2764 124,80.5C 125.425,69.3146 130.258,59.9813 138.5,52.5 Z"/></g>
<g><path style="opacity:1" fill="#c89990" d="M 28.5,31.5 C 29.4884,32.795 30.4884,34.1283 31.5,35.5C 35.3409,43.8542 39.6743,51.8542 44.5,59.5C 44.6741,61.861 45.0074,64.1944 45.5,66.5C 42.5825,62.3339 39.9159,58.0006 37.5,53.5C 34.9512,47.4008 32.1179,41.4008 29,35.5C 28.51,34.2068 28.3433,32.8734 28.5,31.5 Z"/></g>
<g><path style="opacity:1" fill="#402d40" d="M 163.5,49.5 C 166.23,52.1551 166.896,55.1551 165.5,58.5C 164.833,59.1667 164.167,59.8333 163.5,60.5C 164.172,57.0581 163.172,54.3914 160.5,52.5C 160.586,51.5041 160.252,50.6708 159.5,50C 160.793,49.51 162.127,49.3433 163.5,49.5 Z"/></g>
<g><path style="opacity:1" fill="#e2d6df" d="M 239.5,55.5 C 242.108,57.7128 245.441,59.8795 249.5,62C 251.26,62.9653 251.594,64.132 250.5,65.5C 247.93,64.3657 245.264,63.5323 242.5,63C 234.37,54.1812 226.704,54.6812 219.5,64.5C 219.189,65.4778 218.522,66.1445 217.5,66.5C 216.824,65.3984 216.158,64.3984 215.5,63.5C 220.021,57.0761 226.354,54.0761 234.5,54.5C 236.369,54.5068 238.036,54.8401 239.5,55.5 Z"/></g>
<g><path style="opacity:1" fill="#956b88" d="M 105.5,42.5 C 105.5,41.8333 105.833,41.5 106.5,41.5C 107.833,42.1667 108.833,43.1667 109.5,44.5C 109.643,46.2624 109.309,47.9291 108.5,49.5C 103.712,53.7858 99.8782,58.7858 97,64.5C 96.7216,63.5842 96.2216,62.9175 95.5,62.5C 95.5,60.1667 95.5,57.8333 95.5,55.5C 95.3367,53.1432 95.5034,50.8098 96,48.5C 96.3333,50.1667 96.6667,51.8333 97,53.5C 100.337,51.8276 103.67,50.161 107,48.5C 107.738,46.1195 107.238,44.1195 105.5,42.5 Z"/></g>
<g><path style="opacity:1" fill="#7b6379" d="M 88.5,41.5 C 89.4584,41.9528 90.2917,42.6195 91,43.5C 91.7011,46.9283 91.3677,50.2617 90,53.5C 86,57.5 82,61.5 78,65.5C 75.3899,69.6022 74.8899,73.9355 76.5,78.5C 75.8826,78.3893 75.3826,78.056 75,77.5C 74.8171,74.6353 74.3171,71.9686 73.5,69.5C 75.9124,63.2355 80.0791,58.2355 86,54.5C 87.0945,52.9221 87.9278,51.2554 88.5,49.5C 88.78,46.7276 88.1134,44.2276 86.5,42C 87.0944,41.5357 87.7611,41.369 88.5,41.5 Z"/></g>
<g><path style="opacity:1" fill="#b499ae" d="M 239.5,55.5 C 245.53,56.3467 250.53,59.0134 254.5,63.5C 253.624,63.3691 252.957,63.7025 252.5,64.5C 254.171,67.4921 256.171,70.1587 258.5,72.5C 258.949,74.9775 258.283,76.9775 256.5,78.5C 256.191,68.862 251.191,64.5287 241.5,65.5C 241.666,69.5138 241.499,73.5138 241,77.5C 240.881,72.7176 240.215,68.0509 239,63.5C 238.501,67.8206 238.334,72.1539 238.5,76.5C 237.674,71.6835 237.174,66.6835 237,61.5C 235.211,59.771 233.044,59.1043 230.5,59.5C 229.791,58.596 228.791,58.2627 227.5,58.5C 225.298,60.9443 224.131,63.9443 224,67.5C 223.436,72.1935 223.603,76.8602 224.5,81.5C 224.5,83.5 224.5,85.5 224.5,87.5C 222.172,83.5798 220.839,79.2465 220.5,74.5C 220.813,70.9581 220.479,67.6248 219.5,64.5C 226.704,54.6812 234.37,54.1812 242.5,63C 245.264,63.5323 247.93,64.3657 250.5,65.5C 251.594,64.132 251.26,62.9653 249.5,62C 245.441,59.8795 242.108,57.7128 239.5,55.5 Z"/></g>
<g><path style="opacity:1" fill="#4a424f" d="M 193.5,53.5 C 194.117,53.6107 194.617,53.944 195,54.5C 195.558,62.5153 195.391,70.5153 194.5,78.5C 193.686,76.369 193.186,74.0356 193,71.5C 192.814,74.0356 192.314,76.369 191.5,78.5C 191.751,73.4932 192.084,68.4932 192.5,63.5C 192.5,61.1667 192.5,58.8333 192.5,56.5C 192.557,55.391 192.89,54.391 193.5,53.5 Z"/></g>
<g><path style="opacity:1" fill="#846f83" d="M 38.5,35.5 C 41.4175,39.6661 44.0841,43.9994 46.5,48.5C 51.1857,57.5572 54.1857,67.2238 55.5,77.5C 53.2812,75.4245 51.2812,73.0912 49.5,70.5C 49.1667,69.1667 48.8333,67.8333 48.5,66.5C 48.067,63.8344 47.567,61.1677 47,58.5C 43.0975,51.2195 40.2641,43.5528 38.5,35.5 Z"/></g>
<g><path style="opacity:1" fill="#b1767b" d="M 44.5,59.5 C 45.5665,61.964 46.8998,64.2974 48.5,66.5C 48.8333,67.8333 49.1667,69.1667 49.5,70.5C 50.038,72.1172 50.3713,73.7839 50.5,75.5C 48.6675,74.7515 47.0009,73.7515 45.5,72.5C 45.5,72.1667 45.5,71.8333 45.5,71.5C 46.494,70.0011 46.494,68.3344 45.5,66.5C 45.0074,64.1944 44.6741,61.861 44.5,59.5 Z"/></g>
<g><path style="opacity:1" fill="#835176" d="M 188.5,55.5 C 188.5,63.8333 188.5,72.1667 188.5,80.5C 187.833,80.1667 187.167,79.8333 186.5,79.5C 183.322,73.4771 180.988,67.1437 179.5,60.5C 179.47,59.5028 179.97,58.8361 181,58.5C 182.662,59.9967 184.162,61.6634 185.5,63.5C 186.257,60.6303 187.257,57.9636 188.5,55.5 Z"/></g>
<g><path style="opacity:1" fill="#c59aa4" d="M 188.5,53.5 C 189.833,54.5 191.167,55.5 192.5,56.5C 192.5,58.8333 192.5,61.1667 192.5,63.5C 191.137,70.3677 189.804,76.0344 188.5,80.5C 188.5,72.1667 188.5,63.8333 188.5,55.5C 188.5,54.8333 188.5,54.1667 188.5,53.5 Z"/></g>
<g><path style="opacity:1" fill="#6b4c86" d="M 254.5,63.5 C 256.098,65.6979 257.431,68.0313 258.5,70.5C 258.5,71.1667 258.5,71.8333 258.5,72.5C 256.171,70.1587 254.171,67.4921 252.5,64.5C 252.957,63.7025 253.624,63.3691 254.5,63.5 Z"/></g>
<g><path style="opacity:1" fill="#c6a4b6" d="M 19.5,56.5 C 20.552,56.3505 21.552,56.5172 22.5,57C 28.6701,62.3377 34.6701,67.8377 40.5,73.5C 39.8902,74.391 39.5569,75.391 39.5,76.5C 32.5899,71.0957 26.0899,65.0957 20,58.5C 19.5357,57.9056 19.369,57.2389 19.5,56.5 Z"/></g>
<g><path style="opacity:1" fill="#604957" d="M 58.5,51.5 C 61.7469,59.8129 64.0802,68.4796 65.5,77.5C 64.8333,77.8333 64.1667,78.1667 63.5,78.5C 62.3682,78.8966 62.0349,80.8966 62.5,84.5C 62.5,86.1667 62.5,87.8333 62.5,89.5C 60.6238,85.5112 60.2904,81.3446 61.5,77C 60.9152,75.6976 60.2485,74.531 59.5,73.5C 57.8804,66.5793 56.5471,59.5793 55.5,52.5C 56.609,52.4431 57.609,52.1098 58.5,51.5 Z"/></g>
<g><path style="opacity:1" fill="#926b86" d="M 138.5,44.5 C 140.821,45.6249 143.154,45.7916 145.5,45C 144.748,45.6708 144.414,46.5041 144.5,47.5C 141.891,48.4431 139.891,50.1097 138.5,52.5C 130.258,59.9813 125.425,69.3146 124,80.5C 125.359,77.2764 126.859,74.2764 128.5,71.5C 127.005,76.4932 125.505,81.4932 124,86.5C 123.333,91.5 123.333,96.5 124,101.5C 124.179,97.9748 124.679,94.6414 125.5,91.5C 125.5,97.1667 125.5,102.833 125.5,108.5C 125.847,122.299 131.18,134.132 141.5,144C 143.345,145.128 145.345,145.628 147.5,145.5C 145.735,146.461 143.735,146.795 141.5,146.5C 131.178,137.543 124.678,126.21 122,112.5C 119.038,96.2802 120.204,80.4469 125.5,65C 124.576,63.1886 123.743,63.3553 123,65.5C 121.806,71.1423 119.972,76.4756 117.5,81.5C 116.833,81.1667 116.167,80.8333 115.5,80.5C 116.237,74.2138 117.904,68.2138 120.5,62.5C 121.675,62.719 122.675,62.3857 123.5,61.5C 126.779,54.2263 131.779,48.5596 138.5,44.5 Z"/></g>
<g><path style="opacity:1" fill="#a6889b" d="M 109.5,44.5 C 110.613,45.9464 110.78,47.6131 110,49.5C 107,54.8333 104,60.1667 101,65.5C 100.333,68.8333 100.333,72.1667 101,75.5C 102.011,76.3366 103.178,76.67 104.5,76.5C 106.5,75.1667 108.5,75.1667 110.5,76.5C 110.176,78.9641 110.009,81.6308 110,84.5C 107.822,87.4685 106.656,87.1351 106.5,83.5C 100.151,82.3137 94.8172,83.9803 90.5,88.5C 87.7067,88.254 84.7067,88.0873 81.5,88C 78.0132,87.0113 75.6799,84.8446 74.5,81.5C 75.8333,81.5 76.5,80.8333 76.5,79.5C 79.2251,86.0234 83.8918,87.8567 90.5,85C 92.6166,83.2691 94.1166,81.1024 95,78.5C 95.4994,73.1771 95.666,67.8437 95.5,62.5C 96.2216,62.9175 96.7216,63.5842 97,64.5C 99.8782,58.7858 103.712,53.7858 108.5,49.5C 109.309,47.9291 109.643,46.2624 109.5,44.5 Z"/></g>
<g><path style="opacity:1" fill="#52404a" d="M 230.5,59.5 C 227.088,63.0567 225.421,67.3901 225.5,72.5C 225.766,78.7722 227.099,84.7722 229.5,90.5C 227.039,87.9088 225.372,84.9088 224.5,81.5C 223.603,76.8602 223.436,72.1935 224,67.5C 224.131,63.9443 225.298,60.9443 227.5,58.5C 228.791,58.2627 229.791,58.596 230.5,59.5 Z"/></g>
<g><path style="opacity:1" fill="#9d7d9c" d="M 40.5,73.5 C 44.8309,76.9981 48.6642,80.9981 52,85.5C 53.122,87.4068 53.9553,89.4068 54.5,91.5C 49.8333,86.1667 44.8333,81.1667 39.5,76.5C 39.5569,75.391 39.8902,74.391 40.5,73.5 Z"/></g>
<g><path style="opacity:1" fill="#463251" d="M 73.5,69.5 C 74.3171,71.9686 74.8171,74.6353 75,77.5C 75.3826,78.056 75.8826,78.3893 76.5,78.5C 76.5,78.8333 76.5,79.1667 76.5,79.5C 76.5,80.8333 75.8333,81.5 74.5,81.5C 74.5,81.1667 74.5,80.8333 74.5,80.5C 73.6561,76.9009 73.3227,73.2343 73.5,69.5 Z"/></g>
<g><path style="opacity:1" fill="#956a87" d="M 170.5,55.5 C 171.75,58.006 172.416,60.6726 172.5,63.5C 172.013,69.3488 170.68,75.0154 168.5,80.5C 168.75,77.786 168.917,75.1194 169,72.5C 166.811,81.8569 160.978,87.1902 151.5,88.5C 148.481,87.174 145.481,87.174 142.5,88.5C 142.232,86.901 142.566,85.5676 143.5,84.5C 143.897,85.525 144.563,85.6917 145.5,85C 153.04,78.9606 159.707,72.1273 165.5,64.5C 166.994,61.2958 168.661,58.2958 170.5,55.5 Z"/></g>
<g><path style="opacity:1" fill="#ece2ea" d="M 104.5,76.5 C 107.656,76.5291 109.322,78.1957 109.5,81.5C 108.194,83.9305 107.194,83.5972 106.5,80.5C 103.634,81.7946 100.801,81.7946 98,80.5C 97.2195,79.0563 97.3861,77.723 98.5,76.5C 100.643,77.7537 102.643,77.7537 104.5,76.5 Z"/></g>
<g><path style="opacity:1" fill="#9d6b7f" d="M 192.5,63.5 C 192.084,68.4932 191.751,73.4932 191.5,78.5C 190.167,83.5 190.167,88.5 191.5,93.5C 191.5,94.5 191.5,95.5 191.5,96.5C 189.883,92.4604 189.05,88.1271 189,83.5C 188.809,85.7078 188.309,87.7078 187.5,89.5C 187.54,86.1194 187.207,82.7861 186.5,79.5C 187.167,79.8333 187.833,80.1667 188.5,80.5C 189.804,76.0344 191.137,70.3677 192.5,63.5 Z"/></g>
<g><path style="opacity:1" fill="#51384a" d="M 133.5,66.5 C 128.835,74.17 126.169,82.5033 125.5,91.5C 124.679,94.6414 124.179,97.9748 124,101.5C 123.333,96.5 123.333,91.5 124,86.5C 125.505,81.4932 127.005,76.4932 128.5,71.5C 129.167,70.1667 129.833,68.8333 130.5,67.5C 131.391,66.8902 132.391,66.5569 133.5,66.5 Z"/></g>
<g><path style="opacity:1" fill="#6e526f" d="M 258.5,72.5 C 258.5,71.8333 258.5,71.1667 258.5,70.5C 261.888,76.9205 260.221,81.7538 253.5,85C 249.218,85.9651 245.218,85.2984 241.5,83C 239.549,81.2658 238.549,79.0991 238.5,76.5C 238.334,72.1539 238.501,67.8206 239,63.5C 240.215,68.0509 240.881,72.7176 241,77.5C 241.499,73.5138 241.666,69.5138 241.5,65.5C 251.191,64.5287 256.191,68.862 256.5,78.5C 258.283,76.9775 258.949,74.9775 258.5,72.5 Z"/></g>
<g><path style="opacity:1" fill="#383146" d="M 242.5,68.5 C 247.392,69.4324 251.392,71.7657 254.5,75.5C 254.291,76.086 253.957,76.586 253.5,77C 249.681,77.0694 246.014,77.2361 242.5,77.5C 242.5,74.5 242.5,71.5 242.5,68.5 Z"/></g>
<g><path style="opacity:1" fill="#5a4358" d="M 165.5,58.5 C 165.567,59.9587 165.234,61.2921 164.5,62.5C 157.528,69.8069 150.528,77.1402 143.5,84.5C 142.566,85.5676 142.232,86.901 142.5,88.5C 142.5,90.1667 142.5,91.8333 142.5,93.5C 142.703,95.0443 143.37,96.3777 144.5,97.5C 144.376,98.1067 144.043,98.44 143.5,98.5C 141.112,97.7813 139.612,96.1146 139,93.5C 138.21,90.366 138.543,87.366 140,84.5C 146.15,76.9279 153.15,70.2612 161,64.5C 161.662,63.0161 162.496,61.6828 163.5,60.5C 164.167,59.8333 164.833,59.1667 165.5,58.5 Z"/></g>
<g><path style="opacity:1" fill="#be9eb6" d="M 164.5,62.5 C 165.338,62.8417 165.672,63.5084 165.5,64.5C 159.707,72.1273 153.04,78.9606 145.5,85C 144.563,85.6917 143.897,85.525 143.5,84.5C 150.528,77.1402 157.528,69.8069 164.5,62.5 Z"/></g>
<g><path style="opacity:1" fill="#ba9caf" d="M 168.5,80.5 C 167.501,83.1618 166.501,85.8284 165.5,88.5C 164.167,89.5 162.833,90.5 161.5,91.5C 161.53,90.5028 161.03,89.8361 160,89.5C 155.91,91.1969 151.743,92.6969 147.5,94C 146.748,94.6708 146.414,95.5041 146.5,96.5C 145.474,95.147 144.141,94.147 142.5,93.5C 142.5,91.8333 142.5,90.1667 142.5,88.5C 145.481,87.174 148.481,87.174 151.5,88.5C 160.978,87.1902 166.811,81.8569 169,72.5C 168.917,75.1194 168.75,77.786 168.5,80.5 Z"/></g>
<g><path style="opacity:1" fill="#644758" d="M 172.5,63.5 C 173.196,72.3723 171.529,80.7056 167.5,88.5C 166.833,88.5 166.167,88.5 165.5,88.5C 166.501,85.8284 167.501,83.1618 168.5,80.5C 170.68,75.0154 172.013,69.3488 172.5,63.5 Z"/></g>
<g><path style="opacity:1" fill="#593a70" d="M 216.5,76.5 C 218.954,81.4081 221.454,86.4081 224,91.5C 224.632,94.8753 224.132,95.2087 222.5,92.5C 219.937,88.38 217.604,84.0467 215.5,79.5C 216.127,78.5832 216.461,77.5832 216.5,76.5 Z"/></g>
<g><path style="opacity:1" fill="#973f60" d="M 45.5,72.5 C 47.0009,73.7515 48.6675,74.7515 50.5,75.5C 53.7049,81.2445 56.3715,87.2445 58.5,93.5C 55.3388,86.3433 51.0054,80.01 45.5,74.5C 45.5,73.8333 45.5,73.1667 45.5,72.5 Z"/></g>
<g><path style="opacity:1" fill="#615554" d="M 194.5,78.5 C 194.334,84.5092 194.501,90.5092 195,96.5C 196.902,103.851 198.735,111.184 200.5,118.5C 199.732,117.737 199.232,116.737 199,115.5C 198.667,116.5 198.333,117.5 198,118.5C 195.961,110.007 193.795,101.674 191.5,93.5C 190.167,88.5 190.167,83.5 191.5,78.5C 192.314,76.369 192.814,74.0356 193,71.5C 193.186,74.0356 193.686,76.369 194.5,78.5 Z"/></g>
<g><path style="opacity:1" fill="#e5d9e3" d="M 74.5,80.5 C 74.5,80.8333 74.5,81.1667 74.5,81.5C 75.6799,84.8446 78.0132,87.0113 81.5,88C 84.7067,88.0873 87.7067,88.254 90.5,88.5C 89.8333,88.5 89.5,88.8333 89.5,89.5C 80.2549,92.0569 74.7549,88.7236 73,79.5C 73.3826,80.056 73.8826,80.3893 74.5,80.5 Z"/></g>
<g><path style="opacity:1" fill="#906888" d="M 110.5,76.5 C 111.117,76.6107 111.617,76.944 112,77.5C 112.495,79.4727 112.662,81.4727 112.5,83.5C 110.589,87.2481 107.756,90.2481 104,92.5C 102.301,90.467 100.301,88.8004 98,87.5C 95.4334,88.8676 92.9334,90.3676 90.5,92C 87.3971,93.7718 84.3971,93.7718 81.5,92C 83.8333,91.6667 86.1667,91.3333 88.5,91C 89.056,90.6174 89.3893,90.1174 89.5,89.5C 89.5,88.8333 89.8333,88.5 90.5,88.5C 94.8172,83.9803 100.151,82.3137 106.5,83.5C 106.656,87.1351 107.822,87.4685 110,84.5C 110.009,81.6308 110.176,78.9641 110.5,76.5 Z"/></g>
<g><path style="opacity:1" fill="#bca6b8" d="M 262.5,87.5 C 262.5,88.1667 262.833,88.5 263.5,88.5C 263.5,88.8333 263.5,89.1667 263.5,89.5C 259.833,89.8333 257.833,91.8333 257.5,95.5C 256.833,94.5 256.167,93.5 255.5,92.5C 256.996,89.6724 259.329,88.0057 262.5,87.5 Z"/></g>
<g><path style="opacity:1" fill="#775367" d="M 308.5,87.5 C 304.34,94.1464 298.34,96.9797 290.5,96C 293.327,95.2985 295.994,94.2985 298.5,93C 297.906,92.5357 297.239,92.369 296.5,92.5C 299.308,90.521 302.308,88.6876 305.5,87C 306.749,86.2599 307.749,86.4265 308.5,87.5 Z"/></g>
<g><path style="opacity:1" fill="#f0eaef" d="M 263.5,89.5 C 261.882,91.785 259.882,93.785 257.5,95.5C 257.833,91.8333 259.833,89.8333 263.5,89.5 Z"/></g>
<g><path style="opacity:1" fill="#f1e9f0" d="M 161.5,91.5 C 157.576,96.8254 152.576,98.4921 146.5,96.5C 146.414,95.5041 146.748,94.6708 147.5,94C 151.743,92.6969 155.91,91.1969 160,89.5C 161.03,89.8361 161.53,90.5028 161.5,91.5 Z"/></g>
<g><path style="opacity:1" fill="#c7b5c2" d="M 245.5,90.5 C 244.508,90.3284 243.842,90.6618 243.5,91.5C 240.777,92.3519 238.11,93.5186 235.5,95C 233.934,95.765 232.601,95.5983 231.5,94.5C 232.167,94.5 232.5,94.1667 232.5,93.5C 235.516,93.1594 238.182,91.9927 240.5,90C 242.387,89.2204 244.054,89.3871 245.5,90.5 Z"/></g>
<g><path style="opacity:1" fill="#655588" d="M 317.5,90.5 C 317.44,91.0431 317.107,91.3764 316.5,91.5C 314.255,89.3773 311.588,88.3773 308.5,88.5C 308.5,88.1667 308.5,87.8333 308.5,87.5C 307.749,86.4265 306.749,86.2599 305.5,87C 302.308,88.6876 299.308,90.521 296.5,92.5C 293.529,93.2655 290.862,94.5988 288.5,96.5C 286.492,94.9174 284.159,93.9174 281.5,93.5C 284.85,93.665 288.183,93.4983 291.5,93C 296.26,89.118 301.594,86.618 307.5,85.5C 311.954,85.0601 315.287,86.7268 317.5,90.5 Z"/></g>
<g><path style="opacity:1" fill="#7a5176" d="M 49.5,70.5 C 51.2812,73.0912 53.2812,75.4245 55.5,77.5C 55.8333,78.1667 56.1667,78.8333 56.5,79.5C 57.2261,82.1794 58.0594,84.846 59,87.5C 59.4992,82.8452 59.6658,78.1785 59.5,73.5C 60.2485,74.531 60.9152,75.6976 61.5,77C 60.2904,81.3446 60.6238,85.5112 62.5,89.5C 63.8768,98.4416 64.5435,107.442 64.5,116.5C 63.3506,110.968 62.1839,105.301 61,99.5C 60.5204,97.867 59.6871,96.5336 58.5,95.5C 58.5,94.8333 58.5,94.1667 58.5,93.5C 56.3715,87.2445 53.7049,81.2445 50.5,75.5C 50.3713,73.7839 50.038,72.1172 49.5,70.5 Z"/></g>
<g><path style="opacity:1" fill="#746a70" d="M 67.5,86.5 C 68.889,91.2688 69.5557,96.2688 69.5,101.5C 68.8333,99.1667 68.1667,96.8333 67.5,94.5C 67.5,91.8333 67.5,89.1667 67.5,86.5 Z"/></g>
<g><path style="opacity:1" fill="#a38097" d="M 78.5,43.5 C 79.4511,44.9187 79.7845,46.5853 79.5,48.5C 82.5448,48.5079 85.5448,48.8413 88.5,49.5C 87.9278,51.2554 87.0945,52.9221 86,54.5C 80.0791,58.2355 75.9124,63.2355 73.5,69.5C 73.3227,73.2343 73.6561,76.9009 74.5,80.5C 73.8826,80.3893 73.3826,80.056 73,79.5C 74.7549,88.7236 80.2549,92.0569 89.5,89.5C 89.3893,90.1174 89.056,90.6174 88.5,91C 86.1667,91.3333 83.8333,91.6667 81.5,92C 84.3971,93.7718 87.3971,93.7718 90.5,92C 92.9334,90.3676 95.4334,88.8676 98,87.5C 100.301,88.8004 102.301,90.467 104,92.5C 107.756,90.2481 110.589,87.2481 112.5,83.5C 111.171,94.1646 105.837,96.8313 96.5,91.5C 84.0305,98.2048 75.5305,94.8715 71,81.5C 69.2567,67.9233 71.7567,55.2566 78.5,43.5 Z"/></g>
<g><path style="opacity:1" fill="#4c316f" d="M 262.5,87.5 C 269.292,88.0636 275.625,90.0636 281.5,93.5C 284.159,93.9174 286.492,94.9174 288.5,96.5C 288.5,96.8333 288.5,97.1667 288.5,97.5C 282.045,96.7804 276.045,94.6137 270.5,91C 269.207,90.51 267.873,90.3433 266.5,90.5C 266.5,90.1667 266.5,89.8333 266.5,89.5C 265.791,88.596 264.791,88.2627 263.5,88.5C 262.833,88.5 262.5,88.1667 262.5,87.5 Z"/></g>
<g><path style="opacity:1" fill="#8b7088" d="M 263.5,88.5 C 264.791,88.2627 265.791,88.596 266.5,89.5C 265.134,92.3506 263.801,94.684 262.5,96.5C 260.283,97.3686 257.95,97.702 255.5,97.5C 255.672,96.5084 255.338,95.8417 254.5,95.5C 254.557,94.391 254.89,93.391 255.5,92.5C 256.167,93.5 256.833,94.5 257.5,95.5C 259.882,93.785 261.882,91.785 263.5,89.5C 263.5,89.1667 263.5,88.8333 263.5,88.5 Z"/></g>
<g><path style="opacity:1" fill="#b38686" d="M 308.5,87.5 C 308.5,87.8333 308.5,88.1667 308.5,88.5C 307.752,92.417 305.418,94.917 301.5,96C 297.23,97.0754 292.897,97.5754 288.5,97.5C 288.5,97.1667 288.5,96.8333 288.5,96.5C 290.862,94.5988 293.529,93.2655 296.5,92.5C 297.239,92.369 297.906,92.5357 298.5,93C 295.994,94.2985 293.327,95.2985 290.5,96C 298.34,96.9797 304.34,94.1464 308.5,87.5 Z"/></g>
<g><path style="opacity:1" fill="#20191b" d="M 63.5,78.5 C 65.6198,86.3409 66.6198,94.3409 66.5,102.5C 65.2389,96.4819 63.9056,90.4819 62.5,84.5C 62.0349,80.8966 62.3682,78.8966 63.5,78.5 Z"/></g>
<g><path style="opacity:1" fill="#ceafc3" d="M 308.5,88.5 C 311.588,88.3773 314.255,89.3773 316.5,91.5C 317.107,91.3764 317.44,91.0431 317.5,90.5C 318.833,93.5 318.833,96.5 317.5,99.5C 311.347,98.3467 305.014,98.18 298.5,99C 297.584,99.2784 296.918,99.7784 296.5,100.5C 294.716,100.893 293.05,101.559 291.5,102.5C 290.207,101.355 289.041,101.689 288,103.5C 284.38,99.8426 279.88,98.0093 274.5,98C 272.266,96.2502 269.932,94.7502 267.5,93.5C 267.443,92.391 267.11,91.391 266.5,90.5C 267.873,90.3433 269.207,90.51 270.5,91C 276.045,94.6137 282.045,96.7804 288.5,97.5C 292.897,97.5754 297.23,97.0754 301.5,96C 305.418,94.917 307.752,92.417 308.5,88.5 Z"/></g>
<g><path style="opacity:1" fill="#593a4c" d="M 115.5,80.5 C 116.167,80.8333 116.833,81.1667 117.5,81.5C 116.997,91.9533 117.664,102.287 119.5,112.5C 118.596,113.209 118.263,114.209 118.5,115.5C 116.982,112.466 116.149,109.133 116,105.5C 115.5,97.1733 115.334,88.84 115.5,80.5 Z"/></g>
<g><path style="opacity:1" fill="#886b7f" d="M 165.5,88.5 C 166.167,88.5 166.833,88.5 167.5,88.5C 162.017,98.5919 154.017,101.925 143.5,98.5C 144.043,98.44 144.376,98.1067 144.5,97.5C 143.37,96.3777 142.703,95.0443 142.5,93.5C 144.141,94.147 145.474,95.147 146.5,96.5C 152.576,98.4921 157.576,96.8254 161.5,91.5C 162.833,90.5 164.167,89.5 165.5,88.5 Z"/></g>
<g><path style="opacity:1" fill="#8d708b" d="M 224.5,81.5 C 225.372,84.9088 227.039,87.9088 229.5,90.5C 230.833,91.1667 231.833,92.1667 232.5,93.5C 232.5,94.1667 232.167,94.5 231.5,94.5C 230.448,94.3505 229.448,94.5172 228.5,95C 229.645,96.8594 231.312,97.6927 233.5,97.5C 236.605,96.7789 239.605,95.7789 242.5,94.5C 243.461,96.2646 243.795,98.2646 243.5,100.5C 246.598,100.587 246.932,100.087 244.5,99C 245.516,98.4806 246.182,97.6473 246.5,96.5C 245.872,94.5548 244.872,92.8881 243.5,91.5C 243.842,90.6618 244.508,90.3284 245.5,90.5C 246.794,91.2899 247.961,92.2899 249,93.5C 249.956,97.572 249.456,101.405 247.5,105C 242.799,105.719 238.133,105.553 233.5,104.5C 231.199,104.984 229.199,105.984 227.5,107.5C 226.883,107.611 226.383,107.944 226,108.5C 225.085,104.411 226.252,101.077 229.5,98.5C 226.872,95.2867 225.205,91.62 224.5,87.5C 224.5,85.5 224.5,83.5 224.5,81.5 Z"/></g>
<g><path style="opacity:1" fill="#f6f1f6" d="M 243.5,91.5 C 243.443,92.609 243.11,93.609 242.5,94.5C 239.605,95.7789 236.605,96.7789 233.5,97.5C 231.312,97.6927 229.645,96.8594 228.5,95C 229.448,94.5172 230.448,94.3505 231.5,94.5C 232.601,95.5983 233.934,95.765 235.5,95C 238.11,93.5186 240.777,92.3519 243.5,91.5 Z"/></g>
<g><path style="opacity:1" fill="#ceb1c2" d="M 243.5,91.5 C 244.872,92.8881 245.872,94.5548 246.5,96.5C 246.182,97.6473 245.516,98.4806 244.5,99C 246.932,100.087 246.598,100.587 243.5,100.5C 243.795,98.2646 243.461,96.2646 242.5,94.5C 243.11,93.609 243.443,92.609 243.5,91.5 Z"/></g>
<g><path style="opacity:1" fill="#85516e" d="M 317.5,99.5 C 316.791,100.404 315.791,100.737 314.5,100.5C 308.5,100.5 302.5,100.5 296.5,100.5C 296.918,99.7784 297.584,99.2784 298.5,99C 305.014,98.18 311.347,98.3467 317.5,99.5 Z"/></g>
<g><path style="opacity:1" fill="#46406e" d="M 21.5,98.5 C 22.6602,100.203 21.9935,100.869 19.5,100.5C 16.4867,100.107 13.8201,100.774 11.5,102.5C 10.0813,101.549 8.41467,101.216 6.5,101.5C 6.83333,100.833 7.16667,100.167 7.5,99.5C 11.9499,97.3238 16.6165,96.9905 21.5,98.5 Z"/></g>
<g><path style="opacity:1" fill="#b17e77" d="M 266.5,89.5 C 266.5,89.8333 266.5,90.1667 266.5,90.5C 267.11,91.391 267.443,92.391 267.5,93.5C 267.244,95.7925 267.577,97.9592 268.5,100C 273.197,100.28 277.863,100.78 282.5,101.5C 284.58,102.579 285.913,104.245 286.5,106.5C 285.5,105.833 284.5,105.167 283.5,104.5C 282.653,103.034 281.32,102.2 279.5,102C 274.468,101.664 269.468,101.164 264.5,100.5C 263.326,99.4863 262.66,98.153 262.5,96.5C 263.801,94.684 265.134,92.3506 266.5,89.5 Z"/></g>
<g><path style="opacity:1" fill="#513c4c" d="M 264.5,100.5 C 269.468,101.164 274.468,101.664 279.5,102C 281.32,102.2 282.653,103.034 283.5,104.5C 282.833,104.5 282.167,104.5 281.5,104.5C 277.886,103.237 274.219,103.237 270.5,104.5C 267.937,104.263 267.937,103.763 270.5,103C 268.148,102.76 266.148,101.927 264.5,100.5 Z"/></g>
<g><path style="opacity:1" fill="#4c2b74" d="M 6.5,101.5 C 8.41467,101.216 10.0813,101.549 11.5,102.5C 11.5,103.167 11.5,103.833 11.5,104.5C 8.50708,105.135 5.50708,105.301 2.5,105C 3.70507,103.624 5.0384,102.458 6.5,101.5 Z"/></g>
<g><path style="opacity:1" fill="#6d525f" d="M 254.5,95.5 C 255.338,95.8417 255.672,96.5084 255.5,97.5C 255.747,100.974 256.747,101.641 258.5,99.5C 260.557,101.882 262.557,104.215 264.5,106.5C 257.625,105.962 254.292,102.295 254.5,95.5 Z"/></g>
<g><path style="opacity:1" fill="#8c718e" d="M 296.5,100.5 C 302.5,100.5 308.5,100.5 314.5,100.5C 313.77,102.045 312.437,102.878 310.5,103C 305.446,103.781 300.446,103.614 295.5,102.5C 293.258,103.886 291.925,105.886 291.5,108.5C 290.427,106.653 290.427,104.653 291.5,102.5C 293.05,101.559 294.716,100.893 296.5,100.5 Z"/></g>
<g><path style="opacity:1" fill="#41232d" d="M 67.5,94.5 C 68.1667,96.8333 68.8333,99.1667 69.5,101.5C 69.5,109.167 69.5,116.833 69.5,124.5C 68.0762,126.515 67.4095,128.848 67.5,131.5C 67.6716,132.492 67.3382,133.158 66.5,133.5C 67.2994,120.516 67.6328,107.516 67.5,94.5 Z"/></g>
<g><path style="opacity:1" fill="#9b76aa" d="M 7.5,99.5 C 7.16667,100.167 6.83333,100.833 6.5,101.5C 5.0384,102.458 3.70507,103.624 2.5,105C 5.50708,105.301 8.50708,105.135 11.5,104.5C 8.82909,106.118 5.82909,106.785 2.5,106.5C 1.83333,106.5 1.5,106.167 1.5,105.5C 2.5,102.5 4.5,100.5 7.5,99.5 Z"/></g>
<g><path style="opacity:1" fill="#553f82" d="M 83.5,102.5 C 85.8333,103.5 87.5,105.167 88.5,107.5C 88.631,108.239 88.4643,108.906 88,109.5C 85.418,107.772 83.918,105.439 83.5,102.5 Z"/></g>
<g><path style="opacity:1" fill="#7d6085" d="M 262.5,96.5 C 262.66,98.153 263.326,99.4863 264.5,100.5C 266.148,101.927 268.148,102.76 270.5,103C 267.937,103.763 267.937,104.263 270.5,104.5C 274.219,103.237 277.886,103.237 281.5,104.5C 281.167,105.167 280.833,105.833 280.5,106.5C 278.007,106.131 277.34,106.797 278.5,108.5C 273.798,107.996 269.131,107.329 264.5,106.5C 262.557,104.215 260.557,101.882 258.5,99.5C 256.747,101.641 255.747,100.974 255.5,97.5C 257.95,97.702 260.283,97.3686 262.5,96.5 Z"/></g>
<g><path style="opacity:1" fill="#c69fa3" d="M 267.5,93.5 C 269.932,94.7502 272.266,96.2502 274.5,98C 279.88,98.0093 284.38,99.8426 288,103.5C 289.041,101.689 290.207,101.355 291.5,102.5C 290.427,104.653 290.427,106.653 291.5,108.5C 290.608,113.438 290.274,118.438 290.5,123.5C 289.833,121.833 289.167,120.167 288.5,118.5C 288.917,114.183 288.25,110.183 286.5,106.5C 285.913,104.245 284.58,102.579 282.5,101.5C 277.863,100.78 273.197,100.28 268.5,100C 267.577,97.9592 267.244,95.7925 267.5,93.5 Z"/></g>
<g><path style="opacity:1" fill="#3f2f60" d="M 281.5,104.5 C 282.167,104.5 282.833,104.5 283.5,104.5C 284.5,105.167 285.5,105.833 286.5,106.5C 286.649,107.552 286.483,108.552 286,109.5C 283.982,108.777 282.148,107.777 280.5,106.5C 280.833,105.833 281.167,105.167 281.5,104.5 Z"/></g>
<g><path style="opacity:1" fill="#c2a8ba" d="M 102.5,102.5 C 104.193,103.475 105.693,104.808 107,106.5C 108.27,110.504 109.437,113.837 110.5,116.5C 111.833,120.167 111.833,123.833 110.5,127.5C 109.093,119.875 106.76,112.541 103.5,105.5C 101.955,104.548 100.288,104.215 98.5,104.5C 98.5,105.5 98.5,106.5 98.5,107.5C 97.5655,106.432 97.2322,105.099 97.5,103.5C 99.2915,103.634 100.958,103.301 102.5,102.5 Z"/></g>
<g><path style="opacity:1" fill="#6d567a" d="M 110.5,116.5 C 109.437,113.837 108.27,110.504 107,106.5C 105.693,104.808 104.193,103.475 102.5,102.5C 102.369,101.624 102.702,100.957 103.5,100.5C 108.531,104.583 110.864,109.916 110.5,116.5 Z"/></g>
<g><path style="opacity:1" fill="#4d3637" d="M 65.5,77.5 C 66.475,80.3112 67.1417,83.3112 67.5,86.5C 67.5,89.1667 67.5,91.8333 67.5,94.5C 67.6328,107.516 67.2994,120.516 66.5,133.5C 66.2785,136.067 65.6118,138.401 64.5,140.5C 63.8333,140.833 63.1667,141.167 62.5,141.5C 65.8563,128.729 67.1897,115.729 66.5,102.5C 66.6198,94.3409 65.6198,86.3409 63.5,78.5C 64.1667,78.1667 64.8333,77.8333 65.5,77.5 Z"/></g>
<g><path style="opacity:1" fill="#9c7493" d="M 154.5,107.5 C 157.52,110.78 160.02,114.447 162,118.5C 162.176,122.688 162.676,126.688 163.5,130.5C 163.167,131.833 162.833,133.167 162.5,134.5C 161.532,132.393 161.198,130.059 161.5,127.5C 161.631,126.624 161.298,125.957 160.5,125.5C 158.556,124.811 156.556,124.311 154.5,124C 152.997,120.133 150.663,116.967 147.5,114.5C 145.962,114.453 144.962,115.12 144.5,116.5C 143.833,116.833 143.167,117.167 142.5,117.5C 143.634,110.743 147.634,107.41 154.5,107.5 Z"/></g>
<g><path style="opacity:1" fill="#b8909c" d="M 1.5,105.5 C 1.5,106.167 1.83333,106.5 2.5,106.5C 1.16667,108.833 1.16667,111.167 2.5,113.5C 2.41423,114.496 2.74756,115.329 3.5,116C 6.14603,116.497 8.8127,116.664 11.5,116.5C 10.8478,117.725 9.68113,118.392 8,118.5C 6.56435,118.441 5.23101,118.108 4,117.5C 3.53566,118.094 3.36899,118.761 3.5,119.5C 2.44153,118.4 1.6082,117.066 1,115.5C 0.504543,117.473 0.337876,119.473 0.5,121.5C 0.5,122.167 0.5,122.833 0.5,123.5C 0.166667,123.5 -0.166667,123.5 -0.5,123.5C -0.5,118.5 -0.5,113.5 -0.5,108.5C 0.166667,107.5 0.833333,106.5 1.5,105.5 Z"/></g>
<g><path style="opacity:1" fill="#d174b1" d="M 2.5,113.5 C 5.1873,113.336 7.85397,113.503 10.5,114C 11.2524,114.671 11.5858,115.504 11.5,116.5C 8.8127,116.664 6.14603,116.497 3.5,116C 2.74756,115.329 2.41423,114.496 2.5,113.5 Z"/></g>
<g><path style="opacity:1" fill="#9c8296" d="M 19.5,100.5 C 19.5,100.833 19.5,101.167 19.5,101.5C 18.1266,101.343 16.7932,101.51 15.5,102C 18.113,103.107 19.7797,104.94 20.5,107.5C 24.2864,113.408 27.2864,119.742 29.5,126.5C 24.4872,120.221 20.6539,113.221 18,105.5C 16.2835,104.448 15.2835,105.114 15,107.5C 14.3333,106.167 13.6667,104.833 13,103.5C 12.6012,103.728 12.4346,104.062 12.5,104.5C 12.1667,104.5 11.8333,104.5 11.5,104.5C 11.5,103.833 11.5,103.167 11.5,102.5C 13.8201,100.774 16.4867,100.107 19.5,100.5 Z"/></g>
<g><path style="opacity:1" fill="#5a4153" d="M 155.5,107.5 C 155.167,107.5 154.833,107.5 154.5,107.5C 147.634,107.41 143.634,110.743 142.5,117.5C 142.5,119.5 142.5,121.5 142.5,123.5C 141.89,124.391 141.557,125.391 141.5,126.5C 136.846,119.304 138.179,113.137 145.5,108C 148.926,106.424 152.26,106.258 155.5,107.5 Z"/></g>
<g><path style="opacity:1" fill="#8d6373" d="M 154.5,107.5 C 154.833,107.5 155.167,107.5 155.5,107.5C 159.09,107.544 161.59,109.211 163,112.5C 164.829,118.461 164.996,124.461 163.5,130.5C 162.676,126.688 162.176,122.688 162,118.5C 160.02,114.447 157.52,110.78 154.5,107.5 Z"/></g>
<g><path style="opacity:1" fill="#624c5d" d="M 21.5,98.5 C 25.3319,99.8184 28.4986,102.152 31,105.5C 35.3178,114.136 39.6511,122.802 44,131.5C 45.0591,133.659 46.5591,135.326 48.5,136.5C 47.2089,137.542 47.2089,138.708 48.5,140C 55.0367,140.573 55.0367,141.407 48.5,142.5C 46.678,140.99 44.678,139.657 42.5,138.5C 37.9342,130.719 34.1009,122.386 31,113.5C 27.7172,109.049 23.8838,105.049 19.5,101.5C 19.5,101.167 19.5,100.833 19.5,100.5C 21.9935,100.869 22.6602,100.203 21.5,98.5 Z"/></g>
<g><path style="opacity:1" fill="#d0b7bf" d="M 11.5,104.5 C 11.8333,104.5 12.1667,104.5 12.5,104.5C 12.5,105.167 12.5,105.833 12.5,106.5C 14.6064,120.668 20.2731,133.168 29.5,144C 28.9056,144.464 28.2389,144.631 27.5,144.5C 21.7776,138.773 15.7776,133.44 9.5,128.5C 7.52584,125.518 5.52584,122.518 3.5,119.5C 3.36899,118.761 3.53566,118.094 4,117.5C 5.23101,118.108 6.56435,118.441 8,118.5C 9.68113,118.392 10.8478,117.725 11.5,116.5C 11.5858,115.504 11.2524,114.671 10.5,114C 7.85397,113.503 5.1873,113.336 2.5,113.5C 1.16667,111.167 1.16667,108.833 2.5,106.5C 5.82909,106.785 8.82909,106.118 11.5,104.5 Z"/></g>
<g><path style="opacity:1" fill="#bf9cae" d="M 191.5,96.5 C 192.858,104.222 194.524,111.889 196.5,119.5C 196.806,122.385 196.473,125.052 195.5,127.5C 195.167,127.5 194.833,127.5 194.5,127.5C 192.526,119.222 190.86,110.889 189.5,102.5C 189.741,100.102 189.074,98.1016 187.5,96.5C 187.5,94.1667 187.5,91.8333 187.5,89.5C 188.309,87.7078 188.809,85.7078 189,83.5C 189.05,88.1271 189.883,92.4604 191.5,96.5 Z"/></g>
<g><path style="opacity:1" fill="#5a425b" d="M 220.5,74.5 C 220.839,79.2465 222.172,83.5798 224.5,87.5C 225.205,91.62 226.872,95.2867 229.5,98.5C 226.252,101.077 225.085,104.411 226,108.5C 226.383,107.944 226.883,107.611 227.5,107.5C 227.759,116.943 227.759,126.276 227.5,135.5C 225.407,137.261 223.074,138.594 220.5,139.5C 219.391,139.443 218.391,139.11 217.5,138.5C 217.5,137.833 217.5,137.167 217.5,136.5C 218.248,134.668 219.248,133.001 220.5,131.5C 221.404,132.209 221.737,133.209 221.5,134.5C 224.826,134.838 226.493,133.338 226.5,130C 225.431,126.226 224.764,122.393 224.5,118.5C 224.823,114.774 224.489,111.107 223.5,107.5C 221.783,108.668 221.116,110.335 221.5,112.5C 220.549,113.919 220.216,115.585 220.5,117.5C 219.25,117.577 218.417,118.244 218,119.5C 217.273,122.864 216.44,126.197 215.5,129.5C 214.719,128.271 214.219,126.938 214,125.5C 212.322,127.07 210.822,128.737 209.5,130.5C 209.5,129.167 209.5,127.833 209.5,126.5C 209.758,122.56 210.924,118.893 213,115.5C 218.106,110.754 221.939,105.254 224.5,99C 223.909,96.761 223.242,94.5943 222.5,92.5C 224.132,95.2087 224.632,94.8753 224,91.5C 221.454,86.4081 218.954,81.4081 216.5,76.5C 216.421,73.7294 216.921,71.0627 218,68.5C 218.845,70.6115 219.678,72.6115 220.5,74.5 Z"/></g>
<g><path style="opacity:1" fill="#b7809d" d="M 224.5,118.5 C 222.455,117.077 221.455,115.077 221.5,112.5C 221.116,110.335 221.783,108.668 223.5,107.5C 224.489,111.107 224.823,114.774 224.5,118.5 Z"/></g>
<g><path style="opacity:1" fill="#3f363d" d="M 191.5,93.5 C 193.795,101.674 195.961,110.007 198,118.5C 198.333,117.5 198.667,116.5 199,115.5C 199.232,116.737 199.732,117.737 200.5,118.5C 200.754,123.97 200.087,129.304 198.5,134.5C 197.075,136.031 196.409,135.698 196.5,133.5C 197.833,128.833 197.833,124.167 196.5,119.5C 194.524,111.889 192.858,104.222 191.5,96.5C 191.5,95.5 191.5,94.5 191.5,93.5 Z"/></g>
<g><path style="opacity:1" fill="#5a4556" d="M 125.5,108.5 C 127.278,119.005 131.112,128.672 137,137.5C 139.094,140.103 141.594,142.103 144.5,143.5C 147.085,142.927 148.085,141.261 147.5,138.5C 148.857,139.59 149.857,140.924 150.5,142.5C 149.833,143.833 148.833,144.833 147.5,145.5C 145.345,145.628 143.345,145.128 141.5,144C 131.18,134.132 125.847,122.299 125.5,108.5 Z"/></g>
<g><path style="opacity:1" fill="#815c71" d="M 280.5,106.5 C 282.148,107.777 283.982,108.777 286,109.5C 286.483,108.552 286.649,107.552 286.5,106.5C 288.25,110.183 288.917,114.183 288.5,118.5C 288.169,120.322 287.502,121.989 286.5,123.5C 285.833,121.5 285.167,119.5 284.5,117.5C 284.22,113.254 282.22,110.254 278.5,108.5C 277.34,106.797 278.007,106.131 280.5,106.5 Z"/></g>
<g><path style="opacity:1" fill="#7b4e72" d="M 189.5,102.5 C 190.86,110.889 192.526,119.222 194.5,127.5C 193.677,129.455 193.51,131.455 194,133.5C 195.319,131.75 195.819,129.75 195.5,127.5C 196.473,125.052 196.806,122.385 196.5,119.5C 197.833,124.167 197.833,128.833 196.5,133.5C 195.143,134.59 194.143,135.924 193.5,137.5C 193.587,134.402 193.087,134.068 192,136.5C 191.833,135.833 191.667,135.167 191.5,134.5C 192.719,130.68 192.719,127.013 191.5,123.5C 190.774,120.821 189.941,118.154 189,115.5C 188.667,115.833 188.333,116.167 188,116.5C 187.667,115.5 187.333,114.5 187,113.5C 185.303,116.02 183.47,118.353 181.5,120.5C 184.743,114.688 187.409,108.688 189.5,102.5 Z"/></g>
<g><path style="opacity:1" fill="#725872" d="M 29.5,126.5 C 29.1776,132.023 31.1776,136.523 35.5,140C 38.2116,140.826 40.5449,140.326 42.5,138.5C 44.678,139.657 46.678,140.99 48.5,142.5C 45.8333,143.167 45.8333,143.833 48.5,144.5C 47.791,145.404 46.791,145.737 45.5,145.5C 45.44,144.957 45.1067,144.624 44.5,144.5C 42.0433,146.225 39.3766,146.725 36.5,146C 33.6937,143.194 30.8604,140.36 28,137.5C 23.2991,126.765 18.1324,116.431 12.5,106.5C 12.5,105.833 12.5,105.167 12.5,104.5C 12.4346,104.062 12.6012,103.728 13,103.5C 13.6667,104.833 14.3333,106.167 15,107.5C 15.2835,105.114 16.2835,104.448 18,105.5C 20.6539,113.221 24.4872,120.221 29.5,126.5 Z"/></g>
<g><path style="opacity:1" fill="#3b2839" d="M 203.5,126.5 C 203.875,124.302 204.542,122.302 205.5,120.5C 206.363,119.537 207.03,119.537 207.5,120.5C 206.039,123.382 204.873,126.382 204,129.5C 203.517,128.552 203.351,127.552 203.5,126.5 Z"/></g>
<g><path style="opacity:1" fill="#af8a9e" d="M 161.5,127.5 C 158.737,127.744 156.571,129.077 155,131.5C 153.738,128.243 151.738,125.577 149,123.5C 148.667,121.5 148.333,119.5 148,117.5C 146.989,116.663 145.822,116.33 144.5,116.5C 144.962,115.12 145.962,114.453 147.5,114.5C 150.663,116.967 152.997,120.133 154.5,124C 156.556,124.311 158.556,124.811 160.5,125.5C 161.298,125.957 161.631,126.624 161.5,127.5 Z"/></g>
<g><path style="opacity:1" fill="#82637e" d="M 187.5,96.5 C 189.074,98.1016 189.741,100.102 189.5,102.5C 187.409,108.688 184.743,114.688 181.5,120.5C 179.139,124.051 177.139,127.885 175.5,132C 174.307,134.324 174.307,136.49 175.5,138.5C 175.733,140.062 176.4,141.395 177.5,142.5C 176.833,142.5 176.167,142.5 175.5,142.5C 174.883,142.389 174.383,142.056 174,141.5C 173.333,137.5 173.333,133.5 174,129.5C 177.412,122.342 181.078,115.342 185,108.5C 186.772,104.687 187.605,100.687 187.5,96.5 Z"/></g>
<g><path style="opacity:1" fill="#553760" d="M 142.5,123.5 C 143.764,125.27 145.264,126.937 147,128.5C 147.249,131.177 148.249,133.51 150,135.5C 150.497,137.81 150.663,140.143 150.5,142.5C 149.857,140.924 148.857,139.59 147.5,138.5C 145.904,134.255 143.904,130.255 141.5,126.5C 141.557,125.391 141.89,124.391 142.5,123.5 Z"/></g>
<g><path style="opacity:1" fill="#c89aa6" d="M 221.5,112.5 C 221.455,115.077 222.455,117.077 224.5,118.5C 224.764,122.393 225.431,126.226 226.5,130C 226.493,133.338 224.826,134.838 221.5,134.5C 221.737,133.209 221.404,132.209 220.5,131.5C 220.5,126.833 220.5,122.167 220.5,117.5C 220.216,115.585 220.549,113.919 221.5,112.5 Z"/></g>
<g><path style="opacity:1" fill="#834a7f" d="M 191.5,123.5 C 191.642,129.337 189.975,134.504 186.5,139C 182.687,141.117 179.021,140.95 175.5,138.5C 174.307,136.49 174.307,134.324 175.5,132C 177.139,127.885 179.139,124.051 181.5,120.5C 183.47,118.353 185.303,116.02 187,113.5C 187.333,114.5 187.667,115.5 188,116.5C 188.333,116.167 188.667,115.833 189,115.5C 189.941,118.154 190.774,120.821 191.5,123.5 Z"/></g>
<g><path style="opacity:1" fill="#bf5169" d="M 9.5,128.5 C 15.7776,133.44 21.7776,138.773 27.5,144.5C 27.5,144.833 27.5,145.167 27.5,145.5C 20.2333,141.235 14.2333,135.568 9.5,128.5 Z"/></g>
<g><path style="opacity:1" fill="#bb837f" d="M 12.5,106.5 C 18.1324,116.431 23.2991,126.765 28,137.5C 30.8604,140.36 33.6937,143.194 36.5,146C 39.3766,146.725 42.0433,146.225 44.5,144.5C 45.1067,144.624 45.44,144.957 45.5,145.5C 47.6618,146.417 49.9952,146.417 52.5,145.5C 51.7095,146.401 50.7095,147.068 49.5,147.5C 47.1667,148.167 44.8333,148.833 42.5,149.5C 37.4691,148.273 32.4691,146.94 27.5,145.5C 27.5,145.167 27.5,144.833 27.5,144.5C 28.2389,144.631 28.9056,144.464 29.5,144C 20.2731,133.168 14.6064,120.668 12.5,106.5 Z"/></g>
<g><path style="opacity:1" fill="#8f8c88" d="M 69.5,124.5 C 69.5905,127.152 68.9238,129.485 67.5,131.5C 67.4095,128.848 68.0762,126.515 69.5,124.5 Z"/></g>
<g><path style="opacity:1" fill="#9a3856" d="M 194.5,127.5 C 194.833,127.5 195.167,127.5 195.5,127.5C 195.819,129.75 195.319,131.75 194,133.5C 193.51,131.455 193.677,129.455 194.5,127.5 Z"/></g>
<g><path style="opacity:1" fill="#d2bfce" d="M 288.5,118.5 C 289.167,120.167 289.833,121.833 290.5,123.5C 291.015,125.894 291.681,128.228 292.5,130.5C 291.903,130.735 291.57,131.235 291.5,132C 292.167,133.333 292.833,134.667 293.5,136C 293.164,137.03 292.497,137.53 291.5,137.5C 289.989,138.502 288.322,139.169 286.5,139.5C 286.5,137.833 286.5,136.167 286.5,134.5C 287.473,132.932 287.64,131.265 287,129.5C 284.017,132.649 280.85,135.649 277.5,138.5C 277.351,137.448 277.517,136.448 278,135.5C 283,133.005 285.834,129.005 286.5,123.5C 287.502,121.989 288.169,120.322 288.5,118.5 Z"/></g>
<g><path style="opacity:1" fill="#8b6479" d="M 54.5,91.5 C 55.8333,92.8333 57.1667,94.1667 58.5,95.5C 59.6871,96.5336 60.5204,97.867 61,99.5C 62.1839,105.301 63.3506,110.968 64.5,116.5C 64.4702,123.957 63.4702,131.29 61.5,138.5C 61.5195,139.726 61.8529,140.726 62.5,141.5C 60.0257,145.473 57.0257,148.973 53.5,152C 51.8455,152.608 50.1789,153.108 48.5,153.5C 48.8333,152.833 49.1667,152.167 49.5,151.5C 49.5,151.167 49.5,150.833 49.5,150.5C 53.6441,150.061 55.3108,148.061 54.5,144.5C 61.9102,134.868 64.2435,124.201 61.5,112.5C 60.9539,104.862 58.6206,97.8617 54.5,91.5 Z"/></g>
<g><path style="opacity:1" fill="#392a44" d="M 62.5,84.5 C 63.9056,90.4819 65.2389,96.4819 66.5,102.5C 67.1897,115.729 65.8563,128.729 62.5,141.5C 61.8529,140.726 61.5195,139.726 61.5,138.5C 63.4702,131.29 64.4702,123.957 64.5,116.5C 64.5435,107.442 63.8768,98.4416 62.5,89.5C 62.5,87.8333 62.5,86.1667 62.5,84.5 Z"/></g>
<g><path style="opacity:1" fill="#ae89a1" d="M 19.5,101.5 C 23.8838,105.049 27.7172,109.049 31,113.5C 34.1009,122.386 37.9342,130.719 42.5,138.5C 40.5449,140.326 38.2116,140.826 35.5,140C 31.1776,136.523 29.1776,132.023 29.5,126.5C 31.3153,131.455 34.1486,135.788 38,139.5C 36.5311,134.222 34.1977,129.222 31,124.5C 29.4959,119.32 27.4959,114.32 25,109.5C 23.9805,108.313 22.8139,107.313 21.5,106.5C 20.8933,106.624 20.56,106.957 20.5,107.5C 19.7797,104.94 18.113,103.107 15.5,102C 16.7932,101.51 18.1266,101.343 19.5,101.5 Z"/></g>
<g><path style="opacity:1" fill="#eee6ec" d="M 29.5,126.5 C 27.2864,119.742 24.2864,113.408 20.5,107.5C 20.56,106.957 20.8933,106.624 21.5,106.5C 22.8139,107.313 23.9805,108.313 25,109.5C 27.4959,114.32 29.4959,119.32 31,124.5C 34.1977,129.222 36.5311,134.222 38,139.5C 34.1486,135.788 31.3153,131.455 29.5,126.5 Z"/></g>
<g><path style="opacity:1" fill="#845075" d="M 220.5,117.5 C 220.5,122.167 220.5,126.833 220.5,131.5C 219.248,133.001 218.248,134.668 217.5,136.5C 214.873,137.092 212.206,137.425 209.5,137.5C 209.5,135.167 209.5,132.833 209.5,130.5C 210.822,128.737 212.322,127.07 214,125.5C 214.219,126.938 214.719,128.271 215.5,129.5C 216.44,126.197 217.273,122.864 218,119.5C 218.417,118.244 219.25,117.577 220.5,117.5 Z"/></g>
<g><path style="opacity:1" fill="#a28998" d="M 284.5,117.5 C 285.167,119.5 285.833,121.5 286.5,123.5C 285.834,129.005 283,133.005 278,135.5C 277.517,136.448 277.351,137.448 277.5,138.5C 276.833,137.5 276.167,136.5 275.5,135.5C 277.795,132.703 280.295,130.036 283,127.5C 284.316,124.312 284.816,120.978 284.5,117.5 Z"/></g>
<g><path style="opacity:1" fill="#cdb5c7" d="M 144.5,116.5 C 145.822,116.33 146.989,116.663 148,117.5C 148.333,119.5 148.667,121.5 149,123.5C 151.738,125.577 153.738,128.243 155,131.5C 156.571,129.077 158.737,127.744 161.5,127.5C 161.198,130.059 161.532,132.393 162.5,134.5C 160.555,139.761 157.222,143.761 152.5,146.5C 151.71,147.401 150.71,148.068 149.5,148.5C 146.833,147.833 144.167,147.167 141.5,146.5C 143.735,146.795 145.735,146.461 147.5,145.5C 148.833,144.833 149.833,143.833 150.5,142.5C 150.663,140.143 150.497,137.81 150,135.5C 148.249,133.51 147.249,131.177 147,128.5C 145.264,126.937 143.764,125.27 142.5,123.5C 142.5,121.5 142.5,119.5 142.5,117.5C 143.167,117.167 143.833,116.833 144.5,116.5 Z"/></g>
<g><path style="opacity:1" fill="#826174" d="M 215.5,63.5 C 216.158,64.3984 216.824,65.3984 217.5,66.5C 218.522,66.1445 219.189,65.4778 219.5,64.5C 220.479,67.6248 220.813,70.9581 220.5,74.5C 219.678,72.6115 218.845,70.6115 218,68.5C 216.921,71.0627 216.421,73.7294 216.5,76.5C 216.461,77.5832 216.127,78.5832 215.5,79.5C 217.604,84.0467 219.937,88.38 222.5,92.5C 223.242,94.5943 223.909,96.761 224.5,99C 221.939,105.254 218.106,110.754 213,115.5C 210.924,118.893 209.758,122.56 209.5,126.5C 208.486,129.684 207.152,132.851 205.5,136C 205.667,136.833 205.833,137.667 206,138.5C 206.333,138.167 206.667,137.833 207,137.5C 208.754,141.637 211.921,143.303 216.5,142.5C 216.433,141.041 216.766,139.708 217.5,138.5C 218.391,139.11 219.391,139.443 220.5,139.5C 218.317,143.259 214.983,144.925 210.5,144.5C 204.43,142.196 201.764,137.696 202.5,131C 202.508,129.293 202.842,127.793 203.5,126.5C 203.351,127.552 203.517,128.552 204,129.5C 204.873,126.382 206.039,123.382 207.5,120.5C 207.03,119.537 206.363,119.537 205.5,120.5C 206.128,117.91 207.295,115.577 209,113.5C 213.368,109.467 217.368,105.134 221,100.5C 221.667,97.8333 221.667,95.1667 221,92.5C 214.013,85.5309 211.346,77.1976 213,67.5C 213.608,65.9336 214.442,64.6002 215.5,63.5 Z"/></g>
<g><path style="opacity:1" fill="#83627c" d="M 83.5,102.5 C 83.918,105.439 85.418,107.772 88,109.5C 88.4643,108.906 88.631,108.239 88.5,107.5C 92.4968,114.16 95.9968,121.16 99,128.5C 100.039,129.71 101.206,130.71 102.5,131.5C 102.328,133.492 102.995,135.158 104.5,136.5C 102.585,138.071 101.585,140.071 101.5,142.5C 103.903,142.607 105.736,141.607 107,139.5C 107.332,136.494 108.166,133.66 109.5,131C 108.906,130.536 108.239,130.369 107.5,130.5C 107.665,127.482 107.498,124.482 107,121.5C 103.391,117.277 100.557,112.61 98.5,107.5C 98.5,106.5 98.5,105.5 98.5,104.5C 100.288,104.215 101.955,104.548 103.5,105.5C 106.76,112.541 109.093,119.875 110.5,127.5C 110.386,133.857 108.886,139.857 106,145.5C 101.042,150.286 97.8751,149.452 96.5,143C 99.1045,132.148 96.4378,122.815 88.5,115C 87.1667,114.333 85.8333,114.333 84.5,115C 84.6285,124.473 84.1285,133.973 83,143.5C 80.7727,149.279 77.4393,149.946 73,145.5C 72.3333,143.167 72.3333,140.833 73,138.5C 75.3333,134.167 77.6667,129.833 80,125.5C 80.6667,122.167 80.6667,118.833 80,115.5C 78,112.833 76,110.167 74,107.5C 73.51,106.207 73.3433,104.873 73.5,103.5C 76.553,103.681 79.553,103.848 82.5,104C 81.5,103 80.5,102 79.5,101C 81.3524,100.227 82.6857,100.727 83.5,102.5 Z"/></g>
<g><path style="opacity:1" fill="#c7a7b7" d="M 107.5,130.5 C 108.239,130.369 108.906,130.536 109.5,131C 108.166,133.66 107.332,136.494 107,139.5C 105.736,141.607 103.903,142.607 101.5,142.5C 101.585,140.071 102.585,138.071 104.5,136.5C 102.995,135.158 102.328,133.492 102.5,131.5C 104.292,131.634 105.958,131.301 107.5,130.5 Z"/></g>
<g><path style="opacity:1" fill="#bfa0b6" d="M 141.5,146.5 C 144.167,147.167 146.833,147.833 149.5,148.5C 146.15,148.665 142.817,148.498 139.5,148C 137.934,147.392 136.6,146.558 135.5,145.5C 136.525,145.103 136.692,144.437 136,143.5C 127.665,134.667 122.165,124.334 119.5,112.5C 117.664,102.287 116.997,91.9533 117.5,81.5C 119.972,76.4756 121.806,71.1423 123,65.5C 123.743,63.3553 124.576,63.1886 125.5,65C 120.204,80.4469 119.038,96.2802 122,112.5C 124.678,126.21 131.178,137.543 141.5,146.5 Z"/></g>
<g><path style="opacity:1" fill="#5b4982" d="M 119.5,112.5 C 122.165,124.334 127.665,134.667 136,143.5C 136.692,144.437 136.525,145.103 135.5,145.5C 126.727,137.29 121.06,127.29 118.5,115.5C 118.263,114.209 118.596,113.209 119.5,112.5 Z"/></g>
<g><path style="opacity:1" fill="#595b83" d="M 0.5,121.5 C 6.90973,128.759 13.2431,136.259 19.5,144C 22.406,146.619 25.7393,148.453 29.5,149.5C 28.7494,150.573 27.7494,150.74 26.5,150C 20.4712,147.321 15.1379,143.654 10.5,139C 9.55198,138.517 8.55198,138.351 7.5,138.5C 4.8933,133.62 2.55996,128.62 0.5,123.5C 0.5,122.833 0.5,122.167 0.5,121.5 Z"/></g>
<g><path style="opacity:1" fill="#563e74" d="M 209.5,126.5 C 209.5,127.833 209.5,129.167 209.5,130.5C 209.5,132.833 209.5,135.167 209.5,137.5C 212.206,137.425 214.873,137.092 217.5,136.5C 217.5,137.167 217.5,137.833 217.5,138.5C 216.766,139.708 216.433,141.041 216.5,142.5C 211.921,143.303 208.754,141.637 207,137.5C 206.667,137.833 206.333,138.167 206,138.5C 205.833,137.667 205.667,136.833 205.5,136C 207.152,132.851 208.486,129.684 209.5,126.5 Z"/></g>
<g><path style="opacity:1" fill="#9e8ea5" d="M 227.5,135.5 C 227.276,139.562 225.276,142.395 221.5,144C 217.741,145.607 214.074,145.774 210.5,144.5C 214.983,144.925 218.317,143.259 220.5,139.5C 223.074,138.594 225.407,137.261 227.5,135.5 Z"/></g>
<g><path style="opacity:1" fill="#86647d" d="M 286.5,134.5 C 285.128,136.089 283.461,137.422 281.5,138.5C 284.602,140.183 287.936,140.849 291.5,140.5C 291.389,141.117 291.056,141.617 290.5,142C 287.167,142.333 283.833,142.667 280.5,143C 281.056,143.383 281.389,143.883 281.5,144.5C 276.025,143.42 274.025,140.42 275.5,135.5C 276.167,136.5 276.833,137.5 277.5,138.5C 280.85,135.649 284.017,132.649 287,129.5C 287.64,131.265 287.473,132.932 286.5,134.5 Z"/></g>
<g><path style="opacity:1" fill="#c99599" d="M 286.5,134.5 C 286.5,136.167 286.5,137.833 286.5,139.5C 288.322,139.169 289.989,138.502 291.5,137.5C 295.418,138.475 295.418,139.475 291.5,140.5C 287.936,140.849 284.602,140.183 281.5,138.5C 283.461,137.422 285.128,136.089 286.5,134.5 Z"/></g>
<g><path style="opacity:1" fill="#bd8294" d="M 80.5,133.5 C 81.7479,134.334 82.4146,135.667 82.5,137.5C 82.5587,140.109 81.892,142.443 80.5,144.5C 79.3509,144.209 78.6842,143.376 78.5,142C 78.9123,138.973 79.579,136.14 80.5,133.5 Z"/></g>
<g><path style="opacity:1" fill="#784d6e" d="M 3.5,119.5 C 5.52584,122.518 7.52584,125.518 9.5,128.5C 14.2333,135.568 20.2333,141.235 27.5,145.5C 31.8324,149.728 36.8324,151.061 42.5,149.5C 44.8333,148.833 47.1667,148.167 49.5,147.5C 48.375,148.652 48.375,149.652 49.5,150.5C 49.5,150.833 49.5,151.167 49.5,151.5C 42.5906,153.175 35.9239,152.508 29.5,149.5C 25.7393,148.453 22.406,146.619 19.5,144C 13.2431,136.259 6.90973,128.759 0.5,121.5C 0.337876,119.473 0.504543,117.473 1,115.5C 1.6082,117.066 2.44153,118.4 3.5,119.5 Z"/></g>
<g><path style="opacity:1" fill="#614d7e" d="M 191.5,123.5 C 192.719,127.013 192.719,130.68 191.5,134.5C 191.667,135.167 191.833,135.833 192,136.5C 193.087,134.068 193.587,134.402 193.5,137.5C 190.739,138.389 188.406,140.556 186.5,144C 183.156,144.906 180.156,144.406 177.5,142.5C 176.4,141.395 175.733,140.062 175.5,138.5C 179.021,140.95 182.687,141.117 186.5,139C 189.975,134.504 191.642,129.337 191.5,123.5 Z"/></g>
<g><path style="opacity:1" fill="#a98ca2" d="M 61.5,112.5 C 64.2435,124.201 61.9102,134.868 54.5,144.5C 53.8333,144.833 53.1667,145.167 52.5,145.5C 49.9952,146.417 47.6618,146.417 45.5,145.5C 46.791,145.737 47.791,145.404 48.5,144.5C 51.2854,143.91 53.6187,142.576 55.5,140.5C 54.0531,139.065 52.3864,138.065 50.5,137.5C 54.6826,138.154 57.516,136.488 59,132.5C 61.1282,126.009 61.9615,119.342 61.5,112.5 Z"/></g>
<g><path style="opacity:1" fill="#a187a5" d="M 292.5,130.5 C 296.761,135.417 296.428,139.917 291.5,144C 288.183,144.498 284.85,144.665 281.5,144.5C 281.389,143.883 281.056,143.383 280.5,143C 283.833,142.667 287.167,142.333 290.5,142C 291.056,141.617 291.389,141.117 291.5,140.5C 295.418,139.475 295.418,138.475 291.5,137.5C 292.497,137.53 293.164,137.03 293.5,136C 292.833,134.667 292.167,133.333 291.5,132C 291.57,131.235 291.903,130.735 292.5,130.5 Z"/></g>
<g><path style="opacity:1" fill="#4e3470" d="M 48.5,136.5 C 49.1667,136.833 49.8333,137.167 50.5,137.5C 52.3864,138.065 54.0531,139.065 55.5,140.5C 53.6187,142.576 51.2854,143.91 48.5,144.5C 45.8333,143.833 45.8333,143.167 48.5,142.5C 55.0367,141.407 55.0367,140.573 48.5,140C 47.2089,138.708 47.2089,137.542 48.5,136.5 Z"/></g>
<g><path style="opacity:1" fill="#f2eaf0" d="M 152.5,146.5 C 151.761,146.631 151.094,146.464 150.5,146C 152.895,141.632 155.561,137.465 158.5,133.5C 159.614,134.723 159.781,136.056 159,137.5C 157.389,140.938 155.223,143.938 152.5,146.5 Z"/></g>
<g><path style="opacity:1" fill="#977c93" d="M 196.5,133.5 C 196.409,135.698 197.075,136.031 198.5,134.5C 194.818,142.676 188.485,146.51 179.5,146C 177.676,145.34 176.343,144.173 175.5,142.5C 176.167,142.5 176.833,142.5 177.5,142.5C 180.156,144.406 183.156,144.906 186.5,144C 188.406,140.556 190.739,138.389 193.5,137.5C 194.143,135.924 195.143,134.59 196.5,133.5 Z"/></g>
<g><path style="opacity:1" fill="#5a3f62" d="M 80.5,133.5 C 79.579,136.14 78.9123,138.973 78.5,142C 78.6842,143.376 79.3509,144.209 80.5,144.5C 77.478,148.686 75.478,148.02 74.5,142.5C 76.3304,138.172 78.1637,133.838 80,129.5C 80.49,130.793 80.6567,132.127 80.5,133.5 Z"/></g>
<g><path style="opacity:1" fill="#b84f65" d="M 27.5,145.5 C 32.4691,146.94 37.4691,148.273 42.5,149.5C 36.8324,151.061 31.8324,149.728 27.5,145.5 Z"/></g>
<g><path style="opacity:1" fill="#cfc0cc" d="M 14.5,145.5 C 18.7134,148.106 23.0468,150.439 27.5,152.5C 26.209,152.263 25.209,152.596 24.5,153.5C 21.4838,152.657 18.8171,151.157 16.5,149C 15.1772,148.184 14.5106,147.017 14.5,145.5 Z"/></g>
<g><path style="opacity:1" fill="#49356a" d="M 54.5,144.5 C 55.3108,148.061 53.6441,150.061 49.5,150.5C 48.375,149.652 48.375,148.652 49.5,147.5C 50.7095,147.068 51.7095,146.401 52.5,145.5C 53.1667,145.167 53.8333,144.833 54.5,144.5 Z"/></g>
<g><path style="opacity:1" fill="#605f67" d="M 64.5,140.5 C 61.3679,147.752 56.0346,152.752 48.5,155.5C 46.0673,155.214 46.0673,154.548 48.5,153.5C 50.1789,153.108 51.8455,152.608 53.5,152C 57.0257,148.973 60.0257,145.473 62.5,141.5C 63.1667,141.167 63.8333,140.833 64.5,140.5 Z"/></g>
<g><path style="opacity:1" fill="#af849d" d="M 7.5,138.5 C 8.55198,138.351 9.55198,138.517 10.5,139C 15.1379,143.654 20.4712,147.321 26.5,150C 27.7494,150.74 28.7494,150.573 29.5,149.5C 35.9239,152.508 42.5906,153.175 49.5,151.5C 49.1667,152.167 48.8333,152.833 48.5,153.5C 46.0673,154.548 46.0673,155.214 48.5,155.5C 47.791,156.404 46.791,156.737 45.5,156.5C 44.8478,155.275 43.6811,154.608 42,154.5C 36.9922,154.036 32.1589,153.37 27.5,152.5C 23.0468,150.439 18.7134,148.106 14.5,145.5C 11.5091,143.877 9.17574,141.543 7.5,138.5 Z"/></g>
<g><path style="opacity:1" fill="#8a7aaa" d="M 24.5,153.5 C 25.209,152.596 26.209,152.263 27.5,152.5C 32.1589,153.37 36.9922,154.036 42,154.5C 43.6811,154.608 44.8478,155.275 45.5,156.5C 39.0233,156.767 32.69,156.1 26.5,154.5C 26.1583,153.662 25.4916,153.328 24.5,153.5 Z"/></g>
<g><path style="opacity:1" fill="#cac1cd" d="M 26.5,154.5 C 32.69,156.1 39.0233,156.767 45.5,156.5C 41.0189,157.648 36.3522,157.815 31.5,157C 29.5087,156.626 27.842,155.793 26.5,154.5 Z"/></g>
</svg>
