<?xml version="1.0" encoding="UTF-8"?>
<!DOCTYPE svg PUBLIC "-//W3C//DTD SVG 1.1//EN" "http://www.w3.org/Graphics/SVG/1.1/DTD/svg11.dtd">
<svg xmlns="http://www.w3.org/2000/svg" version="1.1" width="916px" height="294px" style="shape-rendering:geometricPrecision; text-rendering:geometricPrecision; image-rendering:optimizeQuality; fill-rule:evenodd; clip-rule:evenodd" xmlns:xlink="http://www.w3.org/1999/xlink">
<g><path style="opacity:1" fill="#0e0e0f" d="M 67.5,10.5 C 86.2632,10.1317 98.7632,18.7984 105,36.5C 109.914,63.4 98.9135,78.0666 72,80.5C 66.0617,79.8457 60.2283,78.679 54.5,77C 36.7718,67.5135 30.9385,53.0135 37,33.5C 43.3278,20.6013 53.4945,12.9346 67.5,10.5 Z M 93.5,32.5 C 93.5299,33.4972 93.0299,34.1639 92,34.5C 86.6467,30.6058 80.6467,28.9391 74,29.5C 63.7935,28.7688 56.1268,32.7688 51,41.5C 49.2313,47.0509 48.0646,52.7176 47.5,58.5C 41.4972,45.754 44.1638,34.9206 55.5,26C 65.6451,20.395 75.9784,20.0617 86.5,25C 89.0666,27.3959 91.4,29.8959 93.5,32.5 Z"/></g>
<g><path style="opacity:1" fill="#92cba5" d="M 93.5,32.5 C 100.352,47.2625 97.3519,59.7625 84.5,70C 80.8133,72.09 76.8133,73.2567 72.5,73.5C 62.8376,73.4793 55.0043,69.8126 49,62.5C 48.5899,61.0993 48.0899,59.766 47.5,58.5C 48.0646,52.7176 49.2313,47.0509 51,41.5C 56.1268,32.7688 63.7935,28.7688 74,29.5C 80.6467,28.9391 86.6467,30.6058 92,34.5C 93.0299,34.1639 93.5299,33.4972 93.5,32.5 Z"/></g>
<g><path style="opacity:0.999" fill="#ff954b" d="M 759.5,132.5 C 759.917,135.079 759.25,137.246 757.5,139C 745.507,140.027 733.507,141.027 721.5,142C 718.735,143.097 717.069,145.097 716.5,148C 712.809,148.852 709.142,149.518 705.5,150C 708.688,151.316 712.022,151.816 715.5,151.5C 714.787,156.348 714.953,161.015 716,165.5C 717.441,166.26 718.941,166.926 720.5,167.5C 721.156,181.868 722.156,196.202 723.5,210.5C 722.936,212.819 722.436,215.153 722,217.5C 718.448,220.719 714.615,223.552 710.5,226C 706.442,226.767 702.442,226.6 698.5,225.5C 696.203,221.002 694.203,216.335 692.5,211.5C 691.333,211.167 690.167,210.833 689,210.5C 650.472,215.089 612.638,223.089 575.5,234.5C 573.311,234.406 571.311,233.739 569.5,232.5C 566.671,229.841 563.671,227.341 560.5,225C 557.204,222.199 556.871,219.199 559.5,216C 570.211,210.487 581.544,206.821 593.5,205C 596.196,204.235 598.696,203.068 601,201.5C 601.038,179.904 603.871,158.738 609.5,138C 608.667,135.5 607.167,135 605,136.5C 604.825,139.95 604.658,143.283 604.5,146.5C 602.271,145.423 599.937,144.756 597.5,144.5C 597.764,139.027 599.764,134.361 603.5,130.5C 604.854,132.184 606.521,132.684 608.5,132C 607.5,131.167 606.5,130.333 605.5,129.5C 606.914,128.376 608.414,127.376 610,126.5C 610.893,113.12 611.893,99.7869 613,86.5C 612.25,85.8742 611.416,85.3742 610.5,85C 602.854,84.0967 595.188,83.4301 587.5,83C 585.5,82.3333 583.5,81.6667 581.5,81C 579.924,78.9229 577.924,77.4229 575.5,76.5C 574.103,78.9066 572.77,81.4066 571.5,84C 569.866,84.4935 568.199,84.6602 566.5,84.5C 567.112,76.9657 566.945,69.2991 566,61.5C 564.582,59.6368 562.749,59.1368 560.5,60C 548.533,75.7651 539.033,92.9318 532,111.5C 529.6,128.803 527.433,146.136 525.5,163.5C 526.151,175.923 528.651,187.923 533,199.5C 538.676,205.527 544.842,206.027 551.5,201C 554.28,199.188 556.78,197.021 559,194.5C 569.896,179.215 581.396,164.381 593.5,150C 594.793,149.51 596.127,149.343 597.5,149.5C 597.662,151.527 597.495,153.527 597,155.5C 586.997,169.498 577.997,184.165 570,199.5C 563.941,206.469 557.774,213.302 551.5,220C 543.481,223.918 535.148,224.585 526.5,222C 521.366,217.867 516.532,213.367 512,208.5C 506.133,187.227 503.799,165.56 505,143.5C 506.275,141.283 507.275,138.949 508,136.5C 510.595,122.86 512.929,109.193 515,95.5C 524.169,74.3177 536.003,54.8177 550.5,37C 560.583,39.0221 570.583,41.6888 580.5,45C 582.975,48.5654 582.975,52.232 580.5,56C 581.878,59.4295 584.211,60.2628 587.5,58.5C 611.129,59.4281 634.796,60.2614 658.5,61C 668.208,61.3775 677.875,62.2109 687.5,63.5C 691.024,62.9495 692.024,61.1162 690.5,58C 691.167,57 691.833,56 692.5,55C 717.125,52.2038 741.791,50.2038 766.5,49C 769.85,52.5319 772.016,56.6986 773,61.5C 778.882,65.4314 781.716,70.9314 781.5,78C 780.516,95.4303 781.35,112.93 784,130.5C 784.118,132.573 785.118,133.907 787,134.5C 790.64,130.511 793.973,126.178 797,121.5C 801.667,113.5 806.333,105.5 811,97.5C 822.373,85.1289 833.373,72.4622 844,59.5C 848.072,55.5502 852.238,51.7169 856.5,48C 857.5,47.3333 858.5,47.3333 859.5,48C 862.4,49.7424 865.4,51.2424 868.5,52.5C 870.197,53.3636 871.363,54.6969 872,56.5C 872.667,65.5 872.667,74.5 872,83.5C 868.122,102.442 865.122,121.442 863,140.5C 864.738,141.127 866.571,141.46 868.5,141.5C 879.453,139.827 890.453,139.327 901.5,140C 904.894,141.565 905.228,143.565 902.5,146C 887.411,148.252 873.245,153.085 860,160.5C 857.547,164.784 858.213,168.451 862,171.5C 862.667,173.167 862.667,174.833 862,176.5C 857.413,184.004 853.08,191.671 849,199.5C 845.414,210.106 842.081,220.772 839,231.5C 837.207,234.295 835.04,236.795 832.5,239C 826.011,241.414 819.678,244.081 813.5,247C 809.5,247.667 805.5,247.667 801.5,247C 792.758,242.586 785.591,236.42 780,228.5C 776.396,206.979 782.896,189.146 799.5,175C 811.307,164.678 824.473,156.511 839,150.5C 840.667,144.833 842.333,139.167 844,133.5C 845.577,112.444 847.243,91.4444 849,70.5C 846.037,72.4606 843.371,74.794 841,77.5C 837.091,84.4156 832.758,91.0823 828,97.5C 821.4,115.777 813.4,133.444 804,150.5C 799.801,157.302 793.634,160.635 785.5,160.5C 781.5,160 777.5,159.5 773.5,159C 767.715,152.596 764.215,145.096 763,136.5C 762.34,134.676 761.173,133.343 759.5,132.5 Z M 759.5,132.5 C 756.036,129.538 752.703,126.371 749.5,123C 739.443,122.346 729.443,122.846 719.5,124.5C 718.558,124.392 717.725,124.059 717,123.5C 716.567,104.83 716.733,86.1629 717.5,67.5C 731.374,65.036 745.207,63.3693 759,62.5C 758.275,85.8357 758.442,109.169 759.5,132.5 Z M 655.5,79.5 C 658.491,79.1425 661.158,80.3092 663.5,83C 665.167,83.1667 666.833,83.3333 668.5,83.5C 672.723,82.1525 677.056,80.9858 681.5,80C 684.429,79.2228 687.263,79.3895 690,80.5C 691.237,95.9605 692.07,111.46 692.5,127C 691.776,147.16 691.276,167.326 691,187.5C 689.13,188.743 686.964,189.41 684.5,189.5C 668.228,190.721 652.062,192.721 636,195.5C 628.74,195.149 624.574,191.482 623.5,184.5C 624.879,177.739 627.379,171.406 631,165.5C 630.345,158.866 630.012,152.2 630,145.5C 631.721,143.289 633.721,141.289 636,139.5C 637.415,133.088 639.082,126.755 641,120.5C 641.211,109.076 641.377,97.9097 641.5,87C 641.905,86.0546 642.572,85.3879 643.5,85C 648.365,84.7794 652.365,82.9461 655.5,79.5 Z M 833.5,169.5 C 834.833,169.5 836.167,169.5 837.5,169.5C 837.169,172.825 836.836,176.159 836.5,179.5C 836.79,181.952 837.456,184.285 838.5,186.5C 838.297,188.208 837.464,189.541 836,190.5C 835.22,196.633 833.887,202.633 832,208.5C 831.333,209.167 830.667,209.833 830,210.5C 829.872,213.514 829.872,216.514 830,219.5C 822.752,224.542 815.252,229.209 807.5,233.5C 797.259,225.604 794.759,215.604 800,203.5C 807.521,188.506 818.687,177.173 833.5,169.5 Z"/></g>
<g><path style="opacity:0.999" fill="#fe954b" d="M 418.5,185.5 C 418.337,187.857 418.503,190.19 419,192.5C 421.474,196.289 422.974,200.455 423.5,205C 421.785,210.609 419.619,216.109 417,221.5C 410.542,225.198 405.709,223.698 402.5,217C 398.621,208.852 398.621,200.685 402.5,192.5C 400.896,190.102 399.896,187.435 399.5,184.5C 401.008,174.844 400.674,165.344 398.5,156C 398.766,151.77 399.432,147.604 400.5,143.5C 399.769,139.677 399.102,135.844 398.5,132C 399.503,127.636 400.503,123.303 401.5,119C 400.357,112.582 400.19,106.082 401,99.5C 402.486,86.2074 403.486,72.8741 404,59.5C 404.1,56.0971 404.934,52.9304 406.5,50C 410.759,47.5802 415.259,45.7469 420,44.5C 421.944,45.4394 423.611,46.7727 425,48.5C 428,52.8333 431,57.1667 434,61.5C 449.032,92.5666 465.366,122.9 483,152.5C 484.737,143.921 484.903,135.254 483.5,126.5C 485.76,97.2914 489.094,68.7914 493.5,41C 498.167,40.3333 502.833,40.3333 507.5,41C 508,41.5 508.5,42 509,42.5C 508.974,61.3378 506.974,80.0045 503,98.5C 496.429,109.882 494.929,121.882 498.5,134.5C 496.856,134.286 495.356,134.62 494,135.5C 493.833,138.333 493.667,141.167 493.5,144C 496.32,160.223 498.654,176.556 500.5,193C 499.929,199.494 499.429,205.994 499,212.5C 498.535,213.931 497.701,215.097 496.5,216C 494,216.833 491.5,217.667 489,218.5C 487.013,217.846 485.68,216.513 485,214.5C 479.863,200.754 474.529,187.088 469,173.5C 455.646,153.794 444.646,132.794 436,110.5C 433.374,106.044 430.207,102.044 426.5,98.5C 425.914,98.7093 425.414,99.0426 425,99.5C 424,103.167 423,106.833 422,110.5C 423.09,119.106 423.423,127.772 423,136.5C 418.071,137.109 414.571,139.609 412.5,144C 412.998,145.158 413.831,145.991 415,146.5C 417.571,144.809 420.404,143.809 423.5,143.5C 424.172,150.139 423.172,156.472 420.5,162.5C 421.806,163.912 422.64,165.579 423,167.5C 423.667,173.167 423.667,178.833 423,184.5C 421.644,185.38 420.144,185.714 418.5,185.5 Z M 418.5,185.5 C 415.302,184.146 414.136,181.813 415,178.5C 417.022,180.393 418.188,182.727 418.5,185.5 Z"/></g>
<g><path style="opacity:0.999" fill="#0c0b0d" d="M 202.5,48.5 C 218.59,45.4628 230.423,51.1294 238,65.5C 240.092,74.6738 239.592,83.6738 236.5,92.5C 223.558,105.86 208.891,108.026 192.5,99C 180.29,88.4685 178.123,75.9685 186,61.5C 189.939,55.0478 195.439,50.7145 202.5,48.5 Z M 227.5,85.5 C 227.179,72.5126 220.513,65.846 207.5,65.5C 202.844,66.4914 198.177,67.4914 193.5,68.5C 200.047,58.5628 209.047,55.7295 220.5,60C 222.547,61.0726 224.547,62.2393 226.5,63.5C 228.586,67.5944 229.92,71.9277 230.5,76.5C 230.115,79.8307 229.115,82.8307 227.5,85.5 Z"/></g>
<g><path style="opacity:0.998" fill="#0f0e10" d="M 132.5,50.5 C 147.899,49.2778 158.066,55.9445 163,70.5C 165.717,84.8999 160.55,95.3999 147.5,102C 131.568,105.946 119.735,100.779 112,86.5C 108.502,68.4142 115.335,56.4142 132.5,50.5 Z M 153.5,82.5 C 149.403,76.5679 144.403,71.4012 138.5,67C 134.768,65.6578 131.101,64.4912 127.5,63.5C 138.849,57.5819 147.683,60.2486 154,71.5C 156.031,75.42 155.865,79.0866 153.5,82.5 Z"/></g>
<g><path style="opacity:1" fill="#ff954b" d="M 372.5,54.5 C 378.879,55.8449 385.212,57.3449 391.5,59C 393.057,62.9779 393.89,67.1446 394,71.5C 394.667,78.5 394.667,85.5 394,92.5C 392.49,109.243 390.49,125.91 388,142.5C 387.897,169.536 386.897,196.536 385,223.5C 383.69,235.121 378.023,243.787 368,249.5C 365.594,249.297 363.594,248.297 362,246.5C 361.226,242.853 360.559,239.186 360,235.5C 360.399,219.814 360.232,204.148 359.5,188.5C 361.312,164.873 362.645,141.207 363.5,117.5C 363.609,109.096 362.942,100.763 361.5,92.5C 357.525,94.6418 354.358,97.6418 352,101.5C 348.067,107.702 344.4,114.035 341,120.5C 336.827,137.525 332.494,154.525 328,171.5C 323.837,184.655 318.503,197.322 312,209.5C 307.45,217.05 301.283,222.884 293.5,227C 283.668,230.713 275.501,228.547 269,220.5C 261.966,205.665 258.633,189.999 259,173.5C 260.075,138.154 261.741,102.821 264,67.5C 269.082,66.363 274.249,66.1963 279.5,67C 281.004,68.4907 281.837,70.324 282,72.5C 282.189,93.5241 282.689,114.524 283.5,135.5C 282.612,143.154 281.779,150.82 281,158.5C 279.933,159.943 278.766,161.276 277.5,162.5C 279.051,164.884 280.385,167.384 281.5,170C 278.487,180.014 278.987,189.847 283,199.5C 284.295,201.122 285.795,202.455 287.5,203.5C 289.029,203.471 290.196,202.804 291,201.5C 304.814,174.536 318.147,147.202 331,119.5C 341.347,103.48 350.68,86.8132 359,69.5C 362.654,63.6823 367.154,58.6823 372.5,54.5 Z M 376.5,180.5 C 377.748,181.334 378.415,182.667 378.5,184.5C 378.564,186.389 378.064,188.056 377,189.5C 376.009,188.57 375.509,187.404 375.5,186C 375.943,184.175 376.277,182.342 376.5,180.5 Z"/></g>
<g><path style="opacity:1" fill="#91caa4" d="M 127.5,63.5 C 131.101,64.4912 134.768,65.6578 138.5,67C 144.403,71.4012 149.403,76.5679 153.5,82.5C 153.291,83.9217 152.791,85.255 152,86.5C 148.833,89 145.667,91.5 142.5,94C 137.97,94.9474 133.636,94.4474 129.5,92.5C 126.721,89.3797 123.888,86.3797 121,83.5C 118.354,75.1976 120.521,68.5309 127.5,63.5 Z"/></g>
<g><path style="opacity:1" fill="#92cba4" d="M 227.5,85.5 C 220.242,98.3 210.242,100.8 197.5,93C 191.822,86.4372 190.156,78.9372 192.5,70.5C 193.338,70.1583 193.672,69.4916 193.5,68.5C 198.177,67.4914 202.844,66.4914 207.5,65.5C 220.513,65.846 227.179,72.5126 227.5,85.5 Z"/></g>
<g><path style="opacity:0.999" fill="#0e0d0f" d="M 100.5,125.5 C 100.5,125.833 100.5,126.167 100.5,126.5C 118.202,146.188 130.202,168.855 136.5,194.5C 136.5,195.167 136.5,195.833 136.5,196.5C 149.53,198.991 160.697,195.324 170,185.5C 175.177,176.508 175.844,167.175 172,157.5C 166.841,148.332 160.174,140.332 152,133.5C 151.28,131.888 151.446,130.388 152.5,129C 155.167,128.333 157.833,128.333 160.5,129C 161.826,131.158 163.493,132.992 165.5,134.5C 186.172,121.915 208.505,117.082 232.5,120C 243.238,125.208 248.904,133.541 249.5,145C 247.945,154.998 244.778,164.498 240,173.5C 220.59,204.244 195.757,229.744 165.5,250C 147.446,262.135 128.113,271.802 107.5,279C 97.3565,282.03 87.0231,283.03 76.5,282C 58.0372,277.579 50.8705,266.079 55,247.5C 56.4194,240.742 58.9194,234.409 62.5,228.5C 33.9407,206.088 15.774,177.088 8,141.5C 6.15665,129.59 7.82331,118.256 13,107.5C 17.363,101.8 22.863,97.6333 29.5,95C 49.3297,92.3812 66.9964,97.7145 82.5,111C 91.724,111.005 100.891,110.505 110,109.5C 120.628,111.455 131.461,113.955 142.5,117C 144.429,120.256 144.929,123.756 144,127.5C 143.586,127.957 143.086,128.291 142.5,128.5C 126.799,121.692 110.466,119.025 93.5,120.5C 95.4893,122.324 97.3226,124.324 99,126.5C 99.3826,125.944 99.8826,125.611 100.5,125.5 Z M 26.5,107.5 C 24.6525,115.74 23.3192,124.073 22.5,132.5C 24.1497,154.954 31.983,174.954 46,192.5C 53.1667,199.667 60.3333,206.833 67.5,214C 68.448,214.483 69.448,214.649 70.5,214.5C 69.5974,216.636 68.4307,218.636 67,220.5C 43.4068,201.225 27.4068,176.892 19,147.5C 16.7059,136.393 17.0392,125.393 20,114.5C 21.6657,111.669 23.8324,109.336 26.5,107.5 Z M 84.5,123.5 C 80.45,127.88 76.45,132.213 72.5,136.5C 71.0937,136.973 70.427,137.973 70.5,139.5C 69.0092,142.186 68.3425,145.186 68.5,148.5C 68.3981,152.117 69.0648,155.45 70.5,158.5C 70.9886,161.467 72.1552,164.133 74,166.5C 78.0937,171.102 82.5937,175.102 87.5,178.5C 91.4263,181.807 95.7596,184.64 100.5,187C 108.745,190.137 117.078,192.971 125.5,195.5C 102.267,195.432 83.4338,185.099 69,164.5C 59.4612,146.522 63.6279,132.689 81.5,123C 82.7494,122.26 83.7494,122.427 84.5,123.5 Z M 73.5,235.5 C 71.5076,237.363 70.0076,239.696 69,242.5C 67.5556,248.889 67.5556,255.223 69,261.5C 73.1863,264.925 78.0197,266.592 83.5,266.5C 109.411,263.477 133.077,254.643 154.5,240C 182.782,220.386 206.282,196.22 225,167.5C 228.957,160.642 230.624,153.309 230,145.5C 227.008,140.187 222.508,136.687 216.5,135C 209.04,133.7 201.707,132.533 194.5,131.5C 205.358,128.266 216.358,127.433 227.5,129C 232.245,130.115 235.412,132.948 237,137.5C 238.966,148.602 236.966,158.936 231,168.5C 203.267,212.568 165.434,244.735 117.5,265C 104.101,271.08 90.1015,273.414 75.5,272C 64.0994,267.69 60.266,259.524 64,247.5C 65.4666,242.571 67.4666,237.904 70,233.5C 71.3024,234.085 72.469,234.751 73.5,235.5 Z M 77.5,221.5 C 79.4261,222.486 81.4261,223.486 83.5,224.5C 87.7994,226.935 92.466,228.602 97.5,229.5C 102.216,230.627 106.883,231.961 111.5,233.5C 98.3703,235.846 86.2036,233.18 75,225.5C 74.3333,224.167 74.3333,222.833 75,221.5C 75.7697,220.402 76.603,220.402 77.5,221.5 Z"/></g>
<g><path style="opacity:1" fill="#3fb9e0" d="M 74.5,116.5 C 74.5,116.833 74.5,117.167 74.5,117.5C 61.9383,123.424 55.2716,133.424 54.5,147.5C 55.1414,157.927 58.6414,167.26 65,175.5C 74.7006,187.535 86.8673,196.035 101.5,201C 109.732,203.377 117.899,205.877 126,208.5C 126.95,217.755 124.117,225.588 117.5,232C 115.655,233.128 113.655,233.628 111.5,233.5C 106.883,231.961 102.216,230.627 97.5,229.5C 93.498,226.321 88.8313,224.655 83.5,224.5C 81.4261,223.486 79.4261,222.486 77.5,221.5C 79.7833,218.044 82.2833,214.71 85,211.5C 87.2438,204.909 85.0771,202.409 78.5,204C 75.4605,207.26 72.7938,210.76 70.5,214.5C 69.448,214.649 68.448,214.483 67.5,214C 60.3333,206.833 53.1667,199.667 46,192.5C 31.983,174.954 24.1497,154.954 22.5,132.5C 23.3192,124.073 24.6525,115.74 26.5,107.5C 27.1667,107.5 27.5,107.167 27.5,106.5C 35.208,103.075 43.208,102.575 51.5,105C 55.2169,106.18 58.8835,107.513 62.5,109C 66.402,111.751 70.402,114.251 74.5,116.5 Z"/></g>
<g><path style="opacity:1" fill="#647ec4" d="M 85.5,125.5 C 102.632,143.417 115.465,164.084 124,187.5C 124.395,190.207 124.895,192.873 125.5,195.5C 117.078,192.971 108.745,190.137 100.5,187C 95.7596,184.64 91.4263,181.807 87.5,178.5C 81.0268,172.373 75.3601,165.706 70.5,158.5C 69.2322,152.161 69.2322,145.828 70.5,139.5C 70.427,137.973 71.0937,136.973 72.5,136.5C 77.1267,133.209 81.46,129.542 85.5,125.5 Z"/></g>
<g><path style="opacity:1" fill="#ae95d0" d="M 100.5,126.5 C 111.065,127.015 121.398,128.681 131.5,131.5C 133.099,131.232 134.432,131.566 135.5,132.5C 140.107,134.548 144.773,136.715 149.5,139C 153.668,142.336 157.668,145.836 161.5,149.5C 163.262,150.262 164.262,151.596 164.5,153.5C 164.264,156.226 165.097,158.559 167,160.5C 167.667,166.5 167.667,172.5 167,178.5C 164.563,181.72 162.397,185.053 160.5,188.5C 158.491,190.065 156.157,191.065 153.5,191.5C 148.97,191.403 144.47,191.736 140,192.5C 138.319,192.608 137.152,193.275 136.5,194.5C 130.202,168.855 118.202,146.188 100.5,126.5 Z"/></g>
<g><path style="opacity:0.584" fill="#a8b2d1" d="M 84.5,123.5 C 84.8333,124.167 85.1667,124.833 85.5,125.5C 81.46,129.542 77.1267,133.209 72.5,136.5C 76.45,132.213 80.45,127.88 84.5,123.5 Z"/></g>
<g><path style="opacity:0.204" fill="#e5dde8" d="M 100.5,126.5 C 100.5,126.167 100.5,125.833 100.5,125.5C 111.358,125.473 121.691,127.473 131.5,131.5C 121.398,128.681 111.065,127.015 100.5,126.5 Z"/></g>
<g><path style="opacity:1" fill="#fe954a" d="M 194.5,131.5 C 201.707,132.533 209.04,133.7 216.5,135C 222.508,136.687 227.008,140.187 230,145.5C 230.624,153.309 228.957,160.642 225,167.5C 206.282,196.22 182.782,220.386 154.5,240C 133.077,254.643 109.411,263.477 83.5,266.5C 78.0197,266.592 73.1863,264.925 69,261.5C 67.5556,255.223 67.5556,248.889 69,242.5C 70.0076,239.696 71.5076,237.363 73.5,235.5C 79.4509,238.095 85.4509,240.595 91.5,243C 99.5,243.667 107.5,243.667 115.5,243C 122.667,238.5 128.5,232.667 133,225.5C 134.822,219.827 135.988,213.994 136.5,208C 143.601,206.846 150.601,205.179 157.5,203C 160.723,200.938 164.057,199.104 167.5,197.5C 173.5,194.833 177.833,190.5 180.5,184.5C 183.359,177.181 184.192,169.515 183,161.5C 180.357,154.493 177.19,147.66 173.5,141C 173.645,140.228 173.978,139.561 174.5,139C 181.423,136.973 188.089,134.473 194.5,131.5 Z"/></g>
<g><path style="opacity:0.341" fill="#ebe2f4" d="M 135.5,132.5 C 146.86,134.218 155.527,139.885 161.5,149.5C 157.668,145.836 153.668,142.336 149.5,139C 144.773,136.715 140.107,134.548 135.5,132.5 Z"/></g>
<g><path style="opacity:0.161" fill="#c6cbe5" d="M 70.5,139.5 C 69.2322,145.828 69.2322,152.161 70.5,158.5C 69.0648,155.45 68.3981,152.117 68.5,148.5C 68.3425,145.186 69.0092,142.186 70.5,139.5 Z"/></g>
<g><path style="opacity:0.302" fill="#b6bfe0" d="M 70.5,158.5 C 75.3601,165.706 81.0268,172.373 87.5,178.5C 82.5937,175.102 78.0937,171.102 74,166.5C 72.1552,164.133 70.9886,161.467 70.5,158.5 Z"/></g>
<g><path style="opacity:0.353" fill="#dccdea" d="M 164.5,153.5 C 165.892,155.273 167.059,157.273 168,159.5C 172.092,171.103 169.592,180.77 160.5,188.5C 162.397,185.053 164.563,181.72 167,178.5C 167.667,172.5 167.667,166.5 167,160.5C 165.097,158.559 164.264,156.226 164.5,153.5 Z"/></g>
<g><path style="opacity:0.322" fill="#d5d4f0" d="M 153.5,191.5 C 149.028,192.644 144.362,193.477 139.5,194C 138.309,194.698 137.309,195.531 136.5,196.5C 136.5,195.833 136.5,195.167 136.5,194.5C 137.152,193.275 138.319,192.608 140,192.5C 144.47,191.736 148.97,191.403 153.5,191.5 Z"/></g>
<g><path style="opacity:0.431" fill="#ae6734" d="M 180.5,184.5 C 177.833,190.5 173.5,194.833 167.5,197.5C 171.5,192.833 175.833,188.5 180.5,184.5 Z"/></g>
<g><path style="opacity:0.918" fill="#9cdfe4" d="M 83.5,224.5 C 88.8313,224.655 93.498,226.321 97.5,229.5C 92.466,228.602 87.7994,226.935 83.5,224.5 Z"/></g>
</svg>
